<?xml version="1.0" standalone="no"?>
<!DOCTYPE svg PUBLIC "-//W3C//DTD SVG 1.1//EN" "http://www.w3.org/Graphics/SVG/1.1/DTD/svg11.dtd" >
<svg xmlns="http://www.w3.org/2000/svg">
<metadata>
This is a custom SVG webfont generated by Font Squirrel.
Copyright   :  infofontfontde  Copyright Ole Schaefer 1999
</metadata>
<defs>
<font id="FagoNoLfBold" horiz-adv-x="1126" >
<font-face units-per-em="2048" ascent="1638" descent="-410" />
<missing-glyph horiz-adv-x="614" />
<glyph unicode=" "  horiz-adv-x="614" />
<glyph unicode="&#x09;" horiz-adv-x="614" />
<glyph unicode="&#xa0;" horiz-adv-x="614" />
<glyph unicode="!" horiz-adv-x="739" d="M164 149q0 -88 59 -147q58 -61 148 -63q90 2 147 63t57 147q0 89 -57 150q-57 57 -147 59q-88 -2 -146 -59q-61 -61 -61 -150zM211 1433l41 -942h237l41 942h-319z" />
<glyph unicode="&#x22;" horiz-adv-x="1092" d="M143 1433l47 -583h238l49 583h-334zM614 1433l47 -583h238l49 583h-334z" />
<glyph unicode="#" horiz-adv-x="1515" d="M143 328h205v-328h266v328h287v-328h266v328h205v241h-205v295h195l20 242h-215v327h-266v-327h-287v327h-266v-327h-205v-242h205v-295h-205v-241zM614 569v295h287v-295h-287z" />
<glyph unicode="$" horiz-adv-x="840" d="M51 987q0 -72 25 -127q22 -59 53 -102q35 -43 70 -74q34 -33 61 -53l74 -54q61 -38 114 -83q52 -48 54 -117q0 -82 -41 -111q-43 -33 -119 -30q-82 2 -174 32q-98 31 -102 33v-240q2 -2 77 -24q72 -23 174 -35v-248h185v256q121 25 202 113q82 86 84 272q-2 150 -75 236 q-33 43 -74 78q-43 32 -84 59l-78 55q-31 25 -55 43q-25 19 -45 37q-43 39 -43 100q0 115 143 119q96 -2 174 -33q80 -32 82 -34v233l-53 27q-55 24 -158 35v247h-184v-260q-123 -26 -203 -112q-82 -86 -84 -238z" />
<glyph unicode="%" horiz-adv-x="1872" d="M82 1075q2 -219 108 -301q50 -41 115 -59q62 -19 129 -19q146 -2 248 82q102 86 104 297q-2 213 -102 299q-102 82 -250 80q-143 2 -244 -80q-49 -43 -77 -117q-31 -71 -31 -182zM328 1075q0 135 28 178q25 41 78 39q29 0 49 -4q21 -8 33 -29q25 -41 25 -184 q0 -119 -23 -166q-27 -47 -84 -47t-82 47q-24 47 -24 166zM457 -20h262l696 1474h-262zM1085 358q2 -219 109 -301q49 -41 115 -59q61 -18 129 -18q145 -3 247 81q103 86 105 297q-2 213 -103 299q-102 82 -249 80q-144 2 -244 -80q-49 -43 -78 -116q-31 -72 -31 -183z M1331 358q0 136 29 179q24 40 78 38q28 0 49 -4q20 -8 33 -28q24 -41 24 -185q0 -118 -22 -166q-27 -47 -84 -47q-58 0 -82 47q-25 48 -25 166z" />
<glyph unicode="&#x26;" horiz-adv-x="1474" d="M102 391q0 -119 45 -199q41 -81 111 -126q72 -46 158 -66q84 -20 174 -20q166 2 268 53q104 47 158 104l141 -157l338 20l-299 313q74 86 121 246q45 158 47 313h-287q0 -96 -10 -196q-12 -101 -45 -180l-260 270q55 24 110 55q54 31 99 72q43 43 71 104q25 58 25 138 q-2 169 -119 245q-117 74 -299 74q-170 0 -293 -78q-129 -80 -131 -266q0 -68 23 -117q20 -51 49 -88q33 -37 63 -61q31 -27 54 -45q-27 -9 -76 -33q-51 -25 -105 -74q-53 -45 -90 -119q-41 -75 -41 -182zM389 391q2 123 49 182q23 31 49 52q25 18 50 30l327 -352 q-96 -113 -274 -115q-74 0 -135 48q-64 49 -66 155zM508 1110q0 145 137 145q141 0 139 -135q0 -71 -41 -119q-39 -47 -116 -90q-31 27 -72 72q-45 45 -47 127z" />
<glyph unicode="'" horiz-adv-x="620" d="M143 1433l47 -583h238l49 583h-334z" />
<glyph unicode="(" horiz-adv-x="620" d="M82 717q10 -416 160 -694q63 -134 110 -209q45 -78 47 -80h262q-8 4 -135 276q-129 266 -137 707q8 442 137 710q127 269 135 273h-262q-2 0 -47 -76q-47 -78 -110 -213q-150 -281 -160 -694z" />
<glyph unicode=")" horiz-adv-x="620" d="M-41 -266h262q0 2 51 80q50 75 109 209q147 278 158 694q-11 413 -158 694q-59 135 -109 213l-51 76h-262q2 0 45 -70q41 -72 92 -203q127 -268 135 -710q-8 -441 -135 -707q-51 -131 -92 -202q-43 -72 -45 -74z" />
<glyph unicode="*" horiz-adv-x="989" d="M82 1005l139 -233l184 164l-45 -240h273l-47 238l180 -162l141 233l-243 91l243 88l-141 233l-180 -162l47 240h-273l45 -242l-184 164l-139 -233l242 -88z" />
<glyph unicode="+" horiz-adv-x="1311" d="M143 553h369v-379h287v379h368v266h-368v379h-287v-379h-369v-266z" />
<glyph unicode="," horiz-adv-x="704" d="M184 -348h209l168 665h-344z" />
<glyph unicode="-" horiz-adv-x="1106" d="M143 553h819v266h-819v-266z" />
<glyph unicode="." horiz-adv-x="739" d="M164 149q0 -88 59 -147q58 -61 148 -63q90 2 147 63t57 147q0 89 -57 150q-57 57 -147 59q-88 -2 -146 -59q-61 -61 -61 -150z" />
<glyph unicode="/" horiz-adv-x="680" d="M61 -20h271l286 1474h-270z" />
<glyph unicode="0" horiz-adv-x="1167" d="M102 676q0 -221 43 -359q41 -139 109 -213q70 -71 156 -98q84 -26 174 -26q88 0 172 22q84 23 153 92q72 72 115 211q41 139 41 371q0 231 -45 370q-45 140 -117 211q-72 72 -156 95q-83 20 -163 20q-78 0 -162 -20q-84 -23 -158 -95q-72 -71 -115 -211 q-47 -139 -47 -370zM389 676q0 162 16 260q17 98 41 145q27 51 64 68q35 12 74 12q88 4 141 -84q53 -96 53 -401q-2 -303 -55 -400q-25 -51 -59 -67q-37 -21 -80 -21q-39 0 -74 21q-37 20 -64 72q-24 55 -41 151q-16 94 -16 244z" />
<glyph unicode="1" horiz-adv-x="737" d="M20 936l267 123v-1059h286v1352h-225l-328 -174v-242z" />
<glyph unicode="2" horiz-adv-x="981" d="M82 0h778l21 236h-510l196 174q121 102 215 229q94 129 97 299q-3 250 -132 346q-129 90 -321 88q-133 -2 -229 -31q-103 -30 -105 -32v-224q4 2 105 29q96 25 196 27q105 0 154 -45q47 -50 47 -168q-2 -117 -72 -211q-67 -92 -157 -180l-283 -291v-246z" />
<glyph unicode="3" horiz-adv-x="1024" d="M82 -70q123 2 260 17q137 12 262 53q68 25 127 59q57 33 100 82q88 97 91 262q-3 146 -80 217q-82 72 -215 93q47 16 94 37q47 20 84 57q39 37 61 92q23 55 23 133q-4 207 -146 277q-139 65 -327 63q-131 -2 -228 -25q-104 -26 -106 -28v-215q4 2 113 24q104 19 219 21 q84 0 137 -31q51 -35 51 -117q0 -106 -57 -147q-60 -45 -162 -43h-160v-213h158q113 0 182 -37q70 -39 72 -141q0 -103 -47 -152t-123 -76q-88 -28 -193 -34q-104 -9 -190 -11v-217z" />
<glyph unicode="4" horiz-adv-x="1147" d="M61 250h545v-311l287 41v270h203l20 241h-223v471h-238l-49 -471h-266l242 861h-340l-181 -877v-225z" />
<glyph unicode="5" horiz-adv-x="1096" d="M143 614l154 -51q2 2 70 41q65 37 153 39q184 4 187 -176q-3 -123 -56 -184q-26 -31 -61 -52q-37 -20 -80 -36q-88 -27 -182 -35q-95 -8 -168 -11v-221q123 0 256 17q135 18 254 63q141 55 231 164q90 111 92 293q0 125 -35 205q-34 80 -92 120q-55 46 -119 64 q-65 14 -124 14q-91 -2 -148 -20l-59 -21l14 281h496l26 244h-788z" />
<glyph unicode="6" horiz-adv-x="1188" d="M102 573q0 -194 47 -313q43 -121 115 -180q74 -60 158 -80t168 -20q82 0 168 20q84 18 159 70q76 51 123 149q45 94 45 246q-2 254 -120 354q-56 51 -125 72q-70 20 -148 20q-67 0 -123 -16q-55 -19 -94 -45q-80 -60 -80 -64q47 254 213 342q166 86 371 84v219 q-870 -41 -877 -858zM389 553q0 53 2 59q2 2 74 45q35 21 74 33q36 12 73 12q99 2 144 -43q43 -51 43 -202q0 -88 -17 -142q-16 -55 -45 -82q-28 -26 -65 -34q-39 -11 -82 -11q-88 -4 -142 68q-26 39 -43 113q-16 71 -16 184z" />
<glyph unicode="7" horiz-adv-x="922" d="M31 1108h610q-217 -193 -322 -438q-102 -248 -102 -670h287q-2 405 92 649q90 244 295 479v224h-860v-244z" />
<glyph unicode="8" horiz-adv-x="1221" d="M102 348q2 -213 154 -293q145 -78 354 -75q197 0 348 83q156 86 160 299q-2 158 -82 238q-37 41 -84 68q-47 26 -100 45q41 18 80 43q41 24 73 59q35 37 58 86q18 49 18 115q0 110 -45 180t-117 108q-71 39 -153 54q-80 14 -156 14t-153 -14q-82 -15 -154 -56 q-72 -38 -117 -108q-47 -70 -47 -180q2 -135 74 -211q70 -76 149 -109q-92 -28 -172 -110q-86 -86 -88 -236zM389 367q0 55 16 94q13 41 35 67q45 54 88 84l86 -24q47 -13 86 -27q41 -18 68 -43q31 -22 47 -59t16 -92q0 -52 -16 -88q-18 -37 -51 -58q-64 -41 -154 -41 q-94 0 -155 45q-66 41 -66 142zM426 1005q2 158 184 162q185 0 185 -162q-2 -81 -37 -129q-39 -49 -90 -83l-107 34q-55 21 -94 68q-41 47 -41 110z" />
<glyph unicode="9" horiz-adv-x="1192" d="M102 887q2 -238 119 -348q115 -109 289 -109q72 0 127 16q55 13 92 29q74 41 74 43q-45 -194 -211 -274q-166 -82 -346 -92v-224q188 6 342 60q155 53 266 153q115 101 176 254q59 152 59 355q-12 630 -487 622q-209 2 -350 -111q-148 -114 -150 -374zM389 909 q0 248 209 254q233 -4 211 -452q-2 -2 -66 -33q-67 -33 -174 -35q-180 -2 -180 266z" />
<glyph unicode=":" horiz-adv-x="735" d="M164 149q0 -88 59 -147q56 -61 146 -63q90 2 147 63q53 61 55 147q-2 89 -55 150q-57 57 -147 59q-88 -2 -146 -59q-59 -61 -59 -150zM164 917q0 -88 59 -147q56 -63 146 -63t147 63q53 61 55 147q-2 88 -55 150q-57 57 -147 59q-88 -2 -146 -59q-59 -62 -59 -150z" />
<glyph unicode=";" horiz-adv-x="735" d="M164 917q0 -88 59 -147q56 -63 146 -63t147 63q53 61 55 147q-2 88 -55 150q-57 57 -147 59q-88 -2 -146 -59q-59 -62 -59 -150zM186 -348h209l168 665h-344z" />
<glyph unicode="&#x3c;" horiz-adv-x="1290" d="M143 573l1004 -430v308l-692 239l692 232v307l-1004 -430v-226z" />
<glyph unicode="=" horiz-adv-x="1290" d="M143 328h1004v266h-1004v-266zM143 778h1004v266h-1004v-266z" />
<glyph unicode="&#x3e;" horiz-adv-x="1290" d="M143 143l1004 430v226l-1004 430v-307l693 -232l-693 -239v-308z" />
<glyph unicode="?" horiz-adv-x="887" d="M82 1163q4 2 102 31q90 27 172 29q76 0 113 -19q33 -22 33 -78q0 -55 -27 -94q-27 -43 -65 -80q-25 -24 -52 -53q-28 -31 -53 -70q-51 -73 -53 -209q6 -124 12 -129h262q-10 7 -14 140q0 73 39 121q35 47 82 88q47 39 98 104q51 66 53 186q0 97 -30 160q-31 62 -84 98 q-54 37 -121 52q-72 14 -150 14q-110 -2 -209 -33q-106 -33 -108 -35v-223zM180 149q0 -88 60 -147q57 -61 147 -63q90 2 147 63q58 61 58 147q0 89 -58 150q-57 57 -147 59q-88 -2 -145 -59q-62 -61 -62 -150z" />
<glyph unicode="@" horiz-adv-x="2087" d="M123 463q0 -252 78 -420q75 -168 196 -268q121 -101 271 -142q145 -43 294 -43q175 2 304 25q131 20 135 20v224q-4 0 -133 -25q-129 -26 -306 -29q-208 -2 -389 146q-84 78 -139 203t-55 309q4 375 211 575q200 199 516 201q272 0 436 -141q164 -142 166 -430 q0 -121 -19 -203q-18 -82 -51 -131q-30 -49 -67 -70q-37 -20 -78 -20q-100 2 -72 209l90 550h-202l-50 -59q0 2 -45 39q-49 35 -161 37q-181 -2 -322 -166q-147 -164 -151 -453q0 -106 28 -178q27 -74 70 -119q45 -43 98 -63q53 -21 107 -21q92 0 159 39q68 37 109 84 q84 111 84 119q-4 -8 35 -117q24 -45 77 -79q56 -39 150 -39q184 -2 324 151q139 152 143 490q-4 393 -250 589q-242 197 -608 197q-391 0 -680 -250q-297 -252 -303 -741zM844 405q2 191 71 304q66 112 156 114q66 -2 102 -22q35 -23 35 -25l-53 -325q-2 -9 -55 -111 q-29 -45 -66 -78q-39 -37 -88 -37q-49 -2 -74 39q-28 39 -28 141z" />
<glyph unicode="A" d="M0 0h303l59 279h402l59 -279h303l-385 1433h-356zM410 500l75 356q72 362 78 395q6 -35 78 -395l76 -356h-307z" />
<glyph unicode="B" horiz-adv-x="1208" d="M164 0h352q137 0 248 14q108 15 184 56q156 75 158 340q0 100 -27 163q-28 62 -76 95q-47 36 -100 53q-53 16 -104 24q47 13 96 33q47 19 84 53q41 37 63 95q23 55 23 141q-2 229 -150 303q-69 39 -172 53q-100 10 -227 10h-352v-1433zM451 211v424h86q69 0 124 -4 q54 -8 86 -33q72 -43 72 -178q0 -74 -18 -113q-23 -43 -60 -63q-37 -21 -90 -27t-121 -6h-79zM451 840v383h75q62 0 109 -2q47 -5 78 -23q65 -33 65 -147q0 -68 -14 -111q-17 -43 -47 -64q-31 -20 -76 -28t-104 -8h-86z" />
<glyph unicode="C" horiz-adv-x="942" d="M102 717q0 -244 47 -391q46 -148 119 -224q74 -75 164 -98q88 -24 178 -24q140 2 215 28q76 25 76 27v231q-2 -2 -86 -24q-82 -25 -184 -27h-4q-112 0 -172 113q-66 112 -66 389q0 157 23 258q20 100 57 153q37 54 84 74q47 19 98 19q88 -3 168 -25q78 -23 82 -25v232 q0 2 -70 26q-71 23 -194 25q-76 0 -164 -21q-90 -22 -176 -98q-82 -74 -137 -223q-58 -147 -58 -395z" />
<glyph unicode="D" horiz-adv-x="1229" d="M164 0h311q152 0 272 29q121 26 205 102q86 76 131 219q43 141 43 367q0 233 -43 379q-45 143 -131 215q-84 75 -205 100q-120 22 -272 22h-311v-1433zM451 223v987h92q71 0 127 -16q55 -19 92 -70q41 -51 59 -149q19 -101 19 -258q0 -158 -21 -256q-20 -99 -61 -150 q-39 -51 -99 -67q-59 -21 -133 -21h-75z" />
<glyph unicode="E" horiz-adv-x="1014" d="M164 0h798v244h-511v415h430v222h-430v309h501l21 243h-809v-1433z" />
<glyph unicode="F" horiz-adv-x="983" d="M164 0h287v659h430v222h-430v307h485l26 245h-798v-1433z" />
<glyph unicode="G" horiz-adv-x="1280" d="M102 696q0 -237 52 -381q47 -145 125 -217q79 -71 176 -94q96 -24 194 -24q178 2 326 36q147 35 151 37v828h-501l20 -220h195v-432q-17 -14 -195 -20h-7q-34 0 -75 18q-43 17 -84 68q-37 51 -63 153q-27 101 -27 269q0 162 35 262q33 100 82 153q53 54 112 74 q58 17 111 17q119 -2 223 -35q109 -35 113 -37v229q-2 2 -90 37q-43 16 -105 27q-63 10 -141 10q-106 0 -215 -27q-109 -28 -203 -110q-92 -78 -149 -228q-60 -151 -60 -393z" />
<glyph unicode="H" horiz-adv-x="1311" d="M164 0h287v659h409v-659h287v1433h-287v-552h-409v552h-287v-1433z" />
<glyph unicode="I" horiz-adv-x="618" d="M164 0h291v1433h-291v-1433z" />
<glyph unicode="J" horiz-adv-x="758" d="M0 20q2 -2 88 -20q78 -18 172 -20h12q131 0 224 65q96 70 98 258v1130h-287v-1132q0 -51 -26 -70q-25 -20 -70 -20q-49 0 -125 20q-82 19 -86 21v-232z" />
<glyph unicode="K" horiz-adv-x="1157" d="M164 0h287v1433h-287v-1433zM473 778l356 -798l318 20l-389 790l368 643h-323z" />
<glyph unicode="L" horiz-adv-x="907" d="M164 0h696l27 244h-436v1189h-287v-1433z" />
<glyph unicode="M" horiz-adv-x="1597" d="M154 0h284l8 545v56q0 137 -8 243q-12 127 -12 131q0 -4 49 -107q45 -104 117 -235l207 -363l204 363q70 127 119 233q47 107 49 111q-6 -35 -20 -432l8 -545h285l-49 1433h-220l-376 -722l-371 722h-225z" />
<glyph unicode="N" horiz-adv-x="1290" d="M164 0h287v530q-3 148 -17 306q-16 159 -18 165q10 -39 174 -424l282 -577h254v1433h-286v-499q20 -414 32 -471q0 4 -51 145q-51 135 -129 299l-258 526h-270v-1433z" />
<glyph unicode="O" horiz-adv-x="1188" d="M82 717q0 -256 51 -406q47 -149 123 -221q78 -72 166 -90q88 -20 172 -20t174 18q88 18 164 90q78 72 125 221q47 150 49 408q-2 256 -49 407q-52 148 -129 219q-78 72 -166 95q-88 16 -168 16q-76 0 -164 -16q-88 -21 -166 -93q-78 -71 -129 -219q-53 -151 -53 -409z M369 717q0 321 59 432q31 57 74 82q41 18 92 18q53 0 96 -20q41 -23 70 -84q59 -113 59 -428q0 -168 -16 -271q-17 -106 -47 -163q-31 -58 -72 -78q-41 -21 -90 -21h-7q-88 0 -149 101q-30 57 -49 163q-20 105 -20 269z" />
<glyph unicode="P" d="M164 0h287v438q299 2 456 113q158 108 158 391q0 80 -8 143q-11 62 -29 111q-39 98 -111 149q-139 88 -375 88h-26h-352v-1433zM451 639v573h94q51 0 94 -6q43 -8 74 -35q30 -26 49 -79q16 -56 16 -150q0 -186 -84 -246q-41 -28 -102 -41q-31 -6 -64 -10q-37 -2 -77 -6z " />
<glyph unicode="Q" horiz-adv-x="1188" d="M82 717q0 -217 37 -357q35 -139 94 -219q59 -78 131 -112q70 -35 143 -43l76 -375h328l-191 375q76 8 148 43q71 32 131 110q59 80 94 219q33 140 33 359q-2 256 -49 407q-52 148 -129 219q-78 72 -166 95q-88 16 -168 16q-76 0 -164 -16q-88 -21 -166 -93 q-78 -71 -129 -219q-53 -151 -53 -409zM369 717q0 321 59 432q31 57 74 82q41 18 92 18q53 0 96 -20q41 -23 70 -84q59 -113 59 -428q0 -166 -16 -273q-17 -106 -47 -163q-31 -58 -72 -78q-41 -23 -90 -23h-6q-88 0 -150 105q-30 57 -49 163q-20 105 -20 269z" />
<glyph unicode="R" horiz-adv-x="1167" d="M164 0h287v577l116 11q29 -29 64 -94q18 -33 35 -76q14 -43 26 -92l88 -326h326l-139 412q-25 77 -62 141q-37 59 -80 86q121 41 191 131q69 90 69 258q-2 246 -147 330q-70 45 -166 61q-98 14 -215 14h-393v-1433zM451 778v428h92h11q245 0 245 -178v-6q0 -76 -25 -121 q-27 -47 -74 -72q-45 -24 -110 -32q-66 -11 -139 -19z" />
<glyph unicode="S" horiz-adv-x="942" d="M61 1057q2 -148 72 -236q68 -90 160 -139l129 -72q39 -18 69 -37q31 -20 54 -45q47 -47 49 -139q-2 -102 -66 -137q-60 -37 -146 -37h-9q-82 2 -185 33q-110 26 -114 28v-245q2 -2 104 -25q96 -24 236 -26q77 0 161 18q82 16 150 61q70 47 113 129q41 82 43 211 q-2 178 -82 275q-37 49 -84 86q-47 33 -99 57l-122 68q-64 34 -105 75q-45 41 -45 113q0 86 55 121q52 31 129 31q111 -2 199 -29q90 -29 92 -31v234q0 2 -80 28q-41 13 -96 21q-57 6 -135 6q-72 0 -148 -16q-77 -19 -145 -64q-66 -43 -109 -119q-45 -80 -45 -198z" />
<glyph unicode="T" horiz-adv-x="942" d="M0 1188h348v-1188h287v1188h315l33 245h-983v-245z" />
<glyph unicode="U" horiz-adv-x="1241" d="M154 442v-9q0 -219 98 -333q102 -120 368 -120q259 2 365 122q102 119 102 332v8v991h-286v-982q0 -134 -43 -187q-43 -55 -132 -55h-6h-6q-91 0 -133 55q-41 58 -41 187v982h-286v-991z" />
<glyph unicode="V" horiz-adv-x="1044" d="M-20 1433l376 -1433h332l377 1433h-318l-159 -823q-60 -381 -66 -434q-6 53 -65 434l-160 823h-317z" />
<glyph unicode="W" horiz-adv-x="1700" d="M20 1433l238 -1433h391l115 696q74 500 86 594q12 -94 88 -594l113 -696h391l237 1433h-323l-60 -716q-39 -477 -45 -557q-8 78 -76 557l-122 716h-406l-119 -716q-69 -488 -75 -557q-5 71 -43 557l-66 716h-324z" />
<glyph unicode="X" horiz-adv-x="1044" d="M-20 0h337l205 557l203 -557h340l-346 750l325 683h-346l-176 -518l-176 518h-346l326 -683z" />
<glyph unicode="Y" horiz-adv-x="1044" d="M-20 1433l399 -894v-539h287v539l399 894h-326l-217 -651l-217 651h-325z" />
<glyph unicode="Z" horiz-adv-x="958" d="M72 0h804l21 244h-526l520 972v217h-819v-243h520l-520 -973v-217z" />
<glyph unicode="[" horiz-adv-x="717" d="M164 -266h573v248h-286v1470h286v248h-573v-1966z" />
<glyph unicode="\" horiz-adv-x="680" d="M61 1454l287 -1474h270l-286 1474h-271z" />
<glyph unicode="]" horiz-adv-x="717" d="M-20 -18v-248h573v1966h-573v-248h286v-1470h-286z" />
<glyph unicode="^" horiz-adv-x="1036" d="M41 860h291l186 459l186 -459h291l-356 717h-242z" />
<glyph unicode="_" d="M0 -164v-266h1126v266h-1126z" />
<glyph unicode="`" horiz-adv-x="627" d="M20 1597l316 -327h270l-241 327h-345z" />
<glyph unicode="a" d="M92 330q0 -109 31 -176q29 -70 76 -109q47 -37 100 -51q51 -14 100 -14q72 2 127 20q54 16 90 39q76 53 76 57l31 -96h250v754q0 112 -29 182q-31 69 -86 106q-53 39 -125 54q-72 10 -151 10q-158 -2 -271 -33q-119 -31 -121 -33v-227q2 2 115 33q107 26 227 28h13 q65 0 102 -18q39 -23 39 -100v-78h-188q-60 0 -129 -10q-70 -15 -133 -52q-62 -34 -101 -104q-43 -70 -43 -182zM379 336q0 102 53 143q53 39 172 39l82 2v-274q-2 -2 -53 -25q-51 -26 -129 -29h-6q-52 0 -82 31q-37 33 -37 113z" />
<glyph unicode="b" horiz-adv-x="1208" d="M164 27q4 -2 143 -23q135 -22 293 -24q78 0 166 16q86 16 164 74q80 57 127 172q47 114 49 307q0 192 -39 307q-41 113 -102 166q-31 29 -62 47q-33 16 -67 25q-70 12 -129 12q-56 0 -101 -12q-47 -17 -82 -35q-73 -47 -73 -49v464h-287v-1447zM451 190v643q0 3 49 31 q47 27 125 29q51 0 88 -6q37 -13 61 -45q25 -33 37 -103q8 -71 8 -190q0 -113 -16 -184q-19 -72 -51 -115q-31 -39 -68 -55q-37 -17 -78 -17q-47 0 -98 8q-55 4 -57 4z" />
<glyph unicode="c" horiz-adv-x="881" d="M102 537q0 -189 47 -301q43 -115 115 -168q72 -54 156 -72q82 -16 160 -16q102 2 180 24q78 21 80 23v227q-4 -2 -86 -23q-80 -22 -154 -24h-11q-84 0 -138 57q-13 19 -23 45q-12 25 -20 58q-19 63 -19 170q0 118 21 190q20 70 51 102q30 37 71 47q41 9 84 9 q62 -2 140 -21q80 -22 84 -24v219q0 2 -64 24q-63 21 -166 23q-69 0 -155 -14q-88 -19 -166 -76q-80 -58 -131 -172q-56 -115 -56 -307z" />
<glyph unicode="d" horiz-adv-x="1229" d="M102 543q0 -183 43 -293q39 -113 101 -172q61 -58 133 -78q69 -20 133 -20q68 2 123 18q53 16 90 37q76 49 76 53l32 -88h232v1474h-287v-454q0 2 -55 45q-55 39 -170 41q-51 0 -125 -14q-76 -21 -149 -78q-72 -56 -123 -168q-54 -115 -54 -303zM389 543q0 123 21 194 q10 37 22 62q12 24 27 41q30 32 71 43q41 6 84 6q70 -2 117 -27q45 -26 47 -29v-573q-2 -2 -55 -33q-55 -32 -129 -35h-11q-81 0 -135 54q-26 35 -43 106q-16 70 -16 191z" />
<glyph unicode="e" horiz-adv-x="1096" d="M102 543q0 -187 50 -299q45 -113 118 -170q76 -56 162 -76q88 -18 172 -18q68 0 129 10q60 10 105 18q96 25 98 27v227q-4 -2 -109 -26q-104 -27 -223 -29h-6q-69 0 -131 43q-31 24 -53 74q-23 45 -27 124h614l2 95q1 26 1 52q0 140 -33 234q-41 111 -107 170 q-65 62 -143 84q-78 23 -158 23t-162 -23q-39 -12 -75 -32q-39 -23 -74 -54q-66 -59 -107 -170q-43 -112 -43 -284zM387 629q2 161 45 227q39 63 131 63h8q74 0 111 -57q39 -61 41 -233h-336z" />
<glyph unicode="f" horiz-adv-x="737" d="M20 893h185v-893h286v893h218l28 192h-246v58q0 67 27 98q25 27 82 27q74 -2 143 -17q72 -16 76 -16v211q-2 2 -74 24q-75 23 -194 25h-7q-135 0 -233 -70q-49 -37 -78 -100q-28 -68 -28 -168v-72h-185v-192z" />
<glyph unicode="g" horiz-adv-x="1173" d="M113 -129q4 -281 436 -281h18q135 0 240 19q104 14 174 53q139 76 139 277q-2 170 -92 229q-92 57 -246 61l-315 19q-47 2 -72 14q-26 10 -26 43q2 43 49 72q71 -23 174 -23h9q182 0 304 82q125 82 127 285q-2 88 -33 127q-34 37 -37 37h181v200h-373q-33 0 -68 13 q-36 8 -110 8h-9q-181 0 -302 -82q-129 -86 -132 -295q5 -205 138 -291q-51 -28 -90 -78q-43 -49 -43 -124q2 -109 79 -158q-26 -15 -71 -66q-47 -51 -49 -141zM371 -80q0 62 32 109l277 -17q108 -2 145 -18q35 -17 35 -72q0 -141 -270 -141h-23h-5q-191 0 -191 139z M420 731q2 199 172 199h3q165 0 169 -199q-2 -199 -165 -199h-7h-7q-165 0 -165 199z" />
<glyph unicode="h" horiz-adv-x="1259" d="M164 0h287v790q2 3 86 41q38 17 81 27q41 10 78 10q70 0 99 -20q24 -25 24 -82v-766h287v782q0 180 -82 254q-82 70 -219 70q-68 0 -131 -21q-66 -18 -115 -45q-106 -63 -108 -67v501h-287v-1474z" />
<glyph unicode="i" horiz-adv-x="614" d="M137 1403q0 -72 49 -121q50 -53 121 -53q76 0 123 53q45 49 47 121q-2 74 -47 125q-47 47 -123 49q-71 -2 -121 -49q-49 -51 -49 -125zM164 0h287v1085h-287v-1085z" />
<glyph unicode="j" horiz-adv-x="614" d="M-123 -145v-224q4 0 86 -20q80 -19 166 -21q66 0 125 15q59 12 102 47q45 37 70 106q25 68 25 179v1148h-287v-1155q0 -59 -25 -84q-24 -22 -71 -22q-43 2 -113 16q-74 15 -78 15zM137 1403q0 -72 49 -121q50 -53 121 -53q76 0 123 53q45 49 47 121q-2 74 -47 125 q-47 47 -123 49q-71 -2 -121 -49q-49 -51 -49 -125z" />
<glyph unicode="k" horiz-adv-x="1096" d="M164 0h287v1474h-287v-1474zM473 614l291 -634l321 20l-325 627l284 458h-329z" />
<glyph unicode="l" horiz-adv-x="594" d="M154 0h286v1474h-286v-1474z" />
<glyph unicode="m" horiz-adv-x="1792" d="M164 0h287v805q2 2 61 33q57 28 133 30q55 0 86 -16q27 -21 27 -78v-774h286v805q2 2 66 33q59 28 129 30q55 0 86 -16q27 -21 27 -78v-774h286v782q-2 180 -80 254q-79 70 -211 70q-104 -2 -184 -43q-82 -43 -149 -107q-60 150 -260 150q-68 0 -123 -17q-58 -18 -99 -45 q-88 -61 -88 -65l-41 106h-239v-1085z" />
<glyph unicode="n" horiz-adv-x="1259" d="M164 0h287v790q2 3 77 41q72 35 168 37q70 0 99 -20q24 -25 24 -82v-766h287v782q0 183 -82 256q-80 68 -211 68h-8q-74 0 -139 -21q-66 -18 -115 -47q-105 -65 -107 -69l-41 116h-239v-1085z" />
<glyph unicode="o" horiz-adv-x="1155" d="M82 543q0 -178 49 -291q45 -113 119 -172q76 -57 162 -78q84 -22 165 -22q84 0 173 20q86 20 157 78q74 59 121 172q45 110 45 293q0 182 -45 295q-45 112 -117 170q-71 59 -159 79q-86 19 -175 19q-83 0 -169 -19q-86 -22 -162 -84q-72 -59 -117 -170q-47 -112 -47 -290 zM369 543q0 123 18 194q16 74 45 109q31 37 68 47t77 10h12q81 0 138 -53q29 -35 45 -109q14 -73 14 -198q0 -119 -18 -191q-18 -71 -49 -108q-31 -35 -68 -47q-37 -13 -74 -13q-32 0 -67 15q-37 12 -70 47q-30 37 -49 108q-22 70 -22 189z" />
<glyph unicode="p" horiz-adv-x="1208" d="M164 -389h287v401q2 -2 61 -16q55 -14 123 -16q65 0 147 16t154 74q76 57 123 172q45 114 47 307q0 192 -39 307q-39 113 -102 166q-64 55 -136 72q-73 12 -143 12q-55 0 -102 -17q-45 -18 -80 -40q-70 -54 -70 -58l-51 94h-219v-1474zM451 215v616q2 2 59 33 q53 27 115 29q45 0 82 -4q36 -6 61 -39q27 -33 39 -103q12 -71 12 -198q0 -125 -16 -197q-17 -71 -45 -108q-29 -35 -64 -47q-35 -11 -71 -11q-58 0 -111 17q-59 10 -61 12z" />
<glyph unicode="q" horiz-adv-x="1229" d="M102 549q0 -199 50 -313q47 -115 118 -173q72 -53 148 -69q76 -14 135 -14q53 0 96 10q41 10 70 22q59 31 59 33v-434h287v1474h-205l-61 -90q0 4 -60 58q-30 22 -75 39q-46 14 -111 14q-51 0 -125 -14q-76 -17 -149 -74q-72 -56 -123 -168q-54 -113 -54 -301zM389 549 q0 59 6 104q4 43 13 78q14 68 45 100q30 37 71 48q41 8 90 8q78 -2 121 -29q43 -31 43 -33v-592q-2 -2 -57 -20q-53 -23 -107 -25h-10q-80 0 -143 60q-31 37 -51 108q-21 74 -21 193z" />
<glyph unicode="r" horiz-adv-x="774" d="M164 0h287v803q2 0 47 20q43 17 92 19q51 0 106 -9q56 -12 58 -12v273q-4 6 -121 12q-49 0 -86 -19q-37 -18 -64 -45q-53 -61 -53 -65l-37 108h-229v-1085z" />
<glyph unicode="s" horiz-adv-x="868" d="M61 768q0 -70 23 -123q22 -53 57 -90q35 -35 78 -59q41 -25 82 -39l86 -31q61 -18 102 -45q39 -25 39 -76q-2 -57 -43 -78q-45 -20 -116 -20q-74 2 -174 29q-109 24 -113 26v-231q2 -2 100 -25q92 -24 201 -26q78 0 154 12q75 12 135 47q63 37 100 108q35 70 35 183 q-2 131 -64 202q-65 70 -151 99l-103 39q-63 22 -104 49q-47 22 -47 71q0 91 151 91h7q73 -2 165 -25q97 -23 101 -25v224q-2 2 -80 26q-80 23 -199 25q-80 0 -153 -14q-76 -15 -135 -54q-60 -35 -95 -102q-39 -68 -39 -168z" />
<glyph unicode="t" horiz-adv-x="778" d="M20 893h185v-621q0 -94 28 -151q25 -60 66 -90q43 -31 96 -39q51 -12 107 -12q53 2 98 8q47 6 80 16q76 21 78 23v217q-4 -2 -80 -17q-72 -20 -117 -20q-29 -2 -47 12q-23 14 -23 57v617h218l28 192h-246v328l-266 -88l-20 -240h-185v-192z" />
<glyph unicode="u" horiz-adv-x="1218" d="M154 297q2 -176 90 -248q86 -69 217 -69q67 2 127 24q57 21 100 45q90 62 92 66l39 -115h236v1085h-287v-798q-2 -2 -70 -37q-67 -35 -149 -37h-7q-39 0 -69 20q-33 23 -33 95v757h-286v-788z" />
<glyph unicode="v" horiz-adv-x="1003" d="M-20 1085l352 -1085h340l352 1085h-330l-139 -639q-47 -247 -53 -288q-6 39 -54 288l-139 639h-329z" />
<glyph unicode="w" horiz-adv-x="1638" d="M20 1085l228 -1085h391l88 451q78 401 92 464q10 -63 90 -475l90 -440h391l228 1085h-311l-70 -505q-43 -367 -47 -424q-8 57 -70 424l-106 505h-389l-107 -505q-65 -371 -74 -424q-6 55 -45 424l-63 505h-316z" />
<glyph unicode="x" horiz-adv-x="1044" d="M-20 0h337l205 369l209 -369h334l-375 573l354 512h-342l-180 -327l-174 327h-348l354 -512z" />
<glyph unicode="y" horiz-adv-x="973" d="M-20 1085l417 -1050l-14 -62q-14 -65 -47 -110q-37 -49 -100 -51q-56 2 -125 18q-76 16 -78 16v-215q2 0 78 -20q71 -19 155 -21q111 0 201 52q92 53 137 194l389 1249h-305l-178 -755l-213 755h-317z" />
<glyph unicode="z" horiz-adv-x="948" d="M72 0h802l13 219h-490l484 672v194h-809v-219h473l-473 -671v-195z" />
<glyph unicode="{" horiz-adv-x="682" d="M0 596q4 2 86 -27q35 -18 59 -57q23 -41 25 -109v-254q2 -421 416 -415h116v241h-14q-121 0 -176 37q-57 39 -55 144v268q-2 137 -62 205q-59 69 -157 88q92 24 155 92q62 65 64 205v264q0 61 14 96q12 37 41 55q55 31 176 29h14v242h-116q-414 6 -416 -416v-250 q-2 -63 -25 -100q-24 -39 -59 -60q-82 -34 -86 -32v-246z" />
<glyph unicode="|" horiz-adv-x="614" d="M164 -225h287v1884h-287v-1884z" />
<glyph unicode="}" horiz-adv-x="682" d="M-20 -25v-241h116q414 -6 416 415v254q0 68 29 109q26 39 57 57q78 29 84 27v246q-6 -2 -84 32q-31 21 -57 60q-29 37 -29 100v250q-2 422 -416 416h-116v-242h14q125 2 178 -29q53 -34 53 -151v-264q2 -140 68 -205q61 -68 151 -92q-47 -8 -84 -31q-41 -20 -71 -57 q-64 -68 -64 -205v-268q0 -105 -53 -144q-53 -37 -178 -37h-14z" />
<glyph unicode="~" horiz-adv-x="1474" d="M143 543q2 2 95 45q45 20 94 32q49 13 102 13q88 0 162 -23q74 -22 139 -55q70 -29 146 -53q73 -27 168 -27q122 2 202 45q78 41 80 45v262q-4 -2 -96 -43q-43 -16 -90 -28q-49 -17 -92 -17q-66 0 -134 27q-69 22 -143 55t-158 55q-84 23 -182 23q-55 0 -106 -12 q-54 -13 -94 -33q-91 -45 -93 -47v-264z" />
<glyph unicode="&#xa1;" horiz-adv-x="739" d="M164 895q0 -84 59 -145q56 -64 146 -64t147 64q57 57 59 145q0 88 -57 149q-57 60 -149 62q-90 -2 -146 -62q-59 -61 -59 -149zM209 -389h319l-41 942h-237z" />
<glyph unicode="&#xa2;" horiz-adv-x="881" d="M102 537q0 -156 33 -258q17 -52 37 -93q18 -41 43 -71q53 -62 117 -88q63 -31 129 -39v-213h184v209q82 10 137 26q56 15 58 17v227q-4 -2 -86 -23q-80 -22 -154 -24q-92 -4 -149 57q-13 19 -23 45q-12 25 -20 58q-19 63 -19 170q0 118 21 190q20 70 51 102q30 37 71 47 q41 9 84 9q62 -2 140 -21q80 -22 84 -24v219l-52 22q-53 19 -143 25v205h-184v-219q-66 -13 -127 -46q-62 -32 -115 -96q-53 -63 -84 -164q-33 -102 -33 -249z" />
<glyph unicode="&#xa3;" horiz-adv-x="1001" d="M20 0h961v238h-473v387h350l31 227h-381v131q-2 156 162 156q112 -2 211 -33q96 -33 100 -35v227q-2 2 -88 37q-88 35 -236 37q-194 2 -311 -80q-119 -86 -121 -309v-131h-184v-227h184v-387h-205v-238z" />
<glyph unicode="&#xa4;" horiz-adv-x="1137" d="M41 385h205q39 -133 100 -213q64 -82 141 -123q78 -41 162 -55q82 -14 156 -14q139 2 215 28q76 25 76 27v231q-2 -2 -86 -24q-82 -25 -185 -27q-96 -2 -172 37q-78 37 -119 133h388l20 221h-438q-2 33 -2 70q0 43 2 80h418l20 221h-403q49 104 127 135q75 29 159 27 q107 -2 187 -25q82 -22 84 -25v230q-2 2 -76 28q-76 23 -195 25q-59 0 -139 -10q-80 -15 -164 -55q-82 -39 -151 -119q-72 -80 -115 -211h-195l-20 -221h178q-2 -37 -2 -80q0 -37 2 -70h-158z" />
<glyph unicode="&#xa5;" horiz-adv-x="1044" d="M8 1352l256 -527h-182v-254h297v-137h-297v-254h297v-180h287v180h296v254h-296v137h296v254h-182l256 527h-321l-193 -549l-192 549h-322z" />
<glyph unicode="&#xa6;" horiz-adv-x="614" d="M164 -225h287v798h-287v-798zM164 860h287v799h-287v-799z" />
<glyph unicode="&#xa7;" horiz-adv-x="942" d="M61 565q0 -67 29 -117q25 -49 68 -81q45 -33 94 -58q51 -24 100 -45l76 -28q59 -21 98 -48q35 -26 35 -75q0 -50 -41 -74q-41 -25 -110 -25q-109 2 -215 37q-113 31 -117 33v-233q2 -3 108 -29q101 -29 230 -31q166 0 295 72q129 71 133 252q0 55 -11 96q-12 41 -30 68 q-39 53 -88 75q61 31 112 86q25 29 41 68q13 39 13 94q0 68 -23 115q-22 45 -63 78q-39 34 -86 55q-50 22 -103 37l-80 28q-63 25 -102 54q-43 28 -43 80q0 100 151 98q127 -2 228 -39q100 -39 104 -41v225q0 2 -88 41q-90 37 -250 39q-174 0 -297 -70q-129 -73 -131 -253 q2 -107 47 -164q23 -31 43 -49q23 -21 41 -33q-57 -23 -110 -76q-25 -27 -41 -68q-17 -39 -17 -94zM338 600q0 39 27 66q22 24 45 38l88 -34q39 -11 71 -29q17 -8 27 -27q8 -20 8 -51q0 -37 -16 -63q-17 -27 -35 -45l-92 36q-29 9 -74 31q-47 21 -49 78z" />
<glyph unicode="&#xa8;" horiz-adv-x="1038" d="M102 1393q0 -70 47 -115q46 -49 115 -49q72 0 117 49q45 45 45 115q0 69 -45 116q-45 45 -117 47q-69 -2 -115 -47q-47 -47 -47 -116zM612 1393q0 -70 47 -115q45 -49 115 -49q72 0 117 49q45 45 45 115q0 69 -45 116q-45 45 -117 47q-70 -2 -115 -47q-47 -47 -47 -116z " />
<glyph unicode="&#xa9;" horiz-adv-x="1659" d="M102 727q4 -367 211 -555q201 -190 516 -192q318 2 521 196q202 193 206 551q-4 356 -206 551q-203 194 -521 196q-315 -2 -516 -194q-207 -195 -211 -553zM328 727q2 268 145 405q137 138 356 138q222 -2 361 -142q139 -139 141 -401q-2 -264 -141 -401 q-139 -142 -361 -142q-219 0 -356 144q-143 139 -145 399zM510 731q0 -133 39 -213q35 -82 92 -125q29 -20 59 -33q29 -14 60 -22q59 -14 110 -14q82 2 148 24q67 19 69 21v180q-4 -2 -77 -21q-74 -20 -140 -22q-57 -2 -92 49q-39 49 -39 176q0 74 15 119q12 43 30 67 q41 43 99 41q69 -2 135 -20q67 -23 69 -25v174q-2 2 -65 25q-66 20 -139 23q-41 0 -103 -11q-61 -12 -125 -51q-59 -39 -102 -121q-43 -84 -43 -221z" />
<glyph unicode="&#xaa;" horiz-adv-x="965" d="M72 790q0 -86 24 -141q23 -53 60 -84q36 -28 84 -41q47 -12 92 -12q51 0 94 18q41 17 72 39q59 54 61 58l41 -95h231v570q0 205 -90 280q-92 74 -270 72q-135 -2 -221 -25q-88 -24 -90 -26v-203q4 2 104 27q94 22 178 24q62 0 88 -22q23 -23 23 -84v-64l-121 -8 q-51 -2 -110 -12q-62 -10 -119 -41q-58 -27 -92 -82q-39 -57 -39 -148zM109 0h722v266h-722v-266zM346 817q-2 111 160 117l47 2v-191q-2 -2 -45 -16q-19 -6 -39 -10q-23 -8 -39 -8q-80 -2 -84 106z" />
<glyph unicode="&#xab;" horiz-adv-x="1208" d="M61 584l471 -441v377l-217 170l217 162v377l-471 -441v-204zM614 584l471 -441v377l-217 170l217 162v377l-471 -441v-204z" />
<glyph unicode="&#xac;" horiz-adv-x="1433" d="M184 594h881v-391h184v575h-1065v-184z" />
<glyph unicode="&#xad;" horiz-adv-x="956" d="M143 553h819v266h-819v-266z" />
<glyph unicode="&#xae;" horiz-adv-x="1659" d="M102 727q4 -367 211 -555q201 -190 516 -192q318 2 521 196q202 193 206 551q-4 356 -206 551q-203 194 -521 196q-315 -2 -516 -194q-207 -195 -211 -553zM328 727q2 268 145 405q137 138 356 138q222 -2 361 -142q139 -139 141 -401q-2 -264 -141 -401 q-139 -142 -361 -142q-219 0 -356 144q-143 139 -145 399zM580 362h198v283l39 4q47 -51 68 -160l28 -127h226l-56 168q-14 54 -39 97q-24 43 -63 71q57 25 96 70q35 45 37 125q0 80 -25 125q-28 47 -71 67q-43 23 -96 31q-54 4 -113 4h-229v-758zM778 778v199h12 q70 0 99 -12q24 -17 24 -72q2 -60 -20 -84q-25 -27 -115 -31z" />
<glyph unicode="&#xaf;" horiz-adv-x="768" d="M82 1311h604v266h-604v-266z" />
<glyph unicode="&#xb0;" horiz-adv-x="930" d="M82 1096q0 -107 35 -179q32 -73 86 -118q57 -43 125 -62q65 -20 137 -20q155 0 268 90q113 88 115 289q-2 208 -113 294q-112 84 -270 84q-72 0 -137 -18q-68 -20 -125 -66q-119 -88 -121 -294zM348 1096q0 112 33 157q31 43 84 43q61 0 90 -43q27 -45 27 -157 q0 -107 -29 -152q-31 -45 -88 -45q-119 -2 -117 197z" />
<glyph unicode="&#xb1;" horiz-adv-x="1311" d="M143 -61h1024v266h-1024v-266zM143 573h369v-256h287v256h368v267h-368v358h-287v-358h-369v-267z" />
<glyph unicode="&#xb2;" horiz-adv-x="713" d="M98 569h512l17 172h-289l100 105q66 65 121 147q55 84 57 189q0 79 -22 135q-21 51 -62 82q-81 57 -208 55q-93 -2 -154 -21q-66 -20 -66 -22v-166q2 0 76 21q68 16 125 18q103 2 100 -102q0 -70 -32 -125q-35 -58 -84 -111l-191 -213v-164z" />
<glyph unicode="&#xb3;" horiz-adv-x="713" d="M84 580q16 -21 215 -31q61 0 121 14q57 12 104 43t76 86t29 137q0 95 -41 144q-43 49 -115 65q64 23 100 68q35 45 35 127q0 74 -26 119q-29 43 -72 65q-43 25 -96 33q-56 4 -109 4q-78 -2 -147 -16q-72 -21 -74 -21v-162q2 0 80 17q72 14 139 16q49 0 72 -12 q20 -17 20 -60q0 -65 -30 -86q-33 -22 -93 -22h-118v-156h118q72 0 109 -20q35 -23 35 -92q0 -66 -25 -97q-26 -28 -88 -28q-59 0 -135 16q-82 14 -84 14v-165z" />
<glyph unicode="&#xb4;" horiz-adv-x="627" d="M20 1270h271l315 327h-344z" />
<glyph unicode="&#xb5;" horiz-adv-x="1229" d="M164 -389h287v369q83 2 147 24q61 21 104 45q88 62 88 66l39 -115h236v1085h-287v-798q-2 -2 -69 -37q-68 -35 -150 -37q-43 -2 -76 20q-32 23 -32 95v757h-287v-1474z" />
<glyph unicode="&#xb6;" horiz-adv-x="1403" d="M61 942q2 -287 142 -391q135 -107 370 -103v-448h267v1433h-236q-248 5 -393 -92q-150 -102 -150 -399zM348 942q0 172 53 219q54 43 172 41v-538q-120 -3 -172 61q-53 63 -53 217zM973 0h266v1433h-266v-1433z" />
<glyph unicode="&#xb8;" horiz-adv-x="623" d="M41 -154v-208q2 0 74 -23q65 -23 147 -25q123 0 201 48q76 47 78 178q0 55 -21 96q-18 37 -45 61q-61 47 -65 47h-168q2 -2 24 -43q23 -45 25 -104q2 -70 -68 -72q-41 2 -106 25q-72 20 -76 20z" />
<glyph unicode="&#xb9;" horiz-adv-x="713" d="M98 1126l197 88v-653h213v872h-160l-250 -126v-181z" />
<glyph unicode="&#xba;" horiz-adv-x="991" d="M61 983q0 -152 43 -246q39 -94 103 -143q65 -47 141 -66q76 -20 148 -18q75 0 153 20q76 17 137 68q66 51 105 145q39 90 39 240q0 149 -39 244q-37 94 -103 143q-61 51 -137 68q-78 16 -155 16q-74 0 -150 -16q-76 -17 -141 -68q-62 -49 -101 -143q-43 -95 -43 -244z M92 0h807v266h-807v-266zM344 983q0 158 35 215t117 55q86 2 120 -49q31 -57 31 -221q0 -84 -8 -139q-12 -56 -31 -82q-41 -51 -112 -49q-68 -2 -109 55q-43 55 -43 215z" />
<glyph unicode="&#xbb;" horiz-adv-x="1208" d="M123 143l471 441v204l-471 441v-377l217 -162l-217 -170v-377zM676 143l471 441v204l-471 441v-377l217 -162l-217 -170v-377z" />
<glyph unicode="&#xbc;" horiz-adv-x="1917" d="M98 1126l197 88v-653h213v872h-160l-250 -126v-181zM467 -225h225l758 1884h-225zM1225 170h342v-170h213v170h116l17 176h-133v283h-181l-30 -283h-131l133 526h-250l-96 -553v-149z" />
<glyph unicode="&#xbd;" horiz-adv-x="1917" d="M98 1126l197 88v-653h213v872h-160l-250 -126v-181zM467 -225h225l758 1884h-225zM1302 0h512l17 172h-289l100 104q66 66 121 148q55 84 58 188q0 80 -23 135q-20 52 -61 82q-82 58 -209 56q-92 -2 -154 -21q-65 -20 -65 -22v-166q2 0 75 20q68 17 125 19 q103 2 101 -103q0 -69 -33 -125q-35 -57 -84 -110l-191 -213v-164z" />
<glyph unicode="&#xbe;" horiz-adv-x="1917" d="M84 580q16 -21 215 -31q61 0 121 14q57 12 104 43t76 86t29 137q0 95 -41 144q-43 49 -115 65q64 23 100 68q35 45 35 127q0 74 -26 119q-29 43 -72 65q-43 25 -96 33q-56 4 -109 4q-78 -2 -147 -16q-72 -21 -74 -21v-162q2 0 80 17q72 14 139 16q49 0 72 -12 q20 -17 20 -60q0 -65 -30 -86q-33 -22 -93 -22h-118v-156h118q72 0 109 -20q35 -23 35 -92q0 -66 -25 -97q-26 -28 -88 -28q-59 0 -135 16q-82 14 -84 14v-165zM467 -225h225l758 1884h-225zM1225 170h342v-170h213v170h116l17 176h-133v283h-181l-30 -283h-131l133 526 h-250l-96 -553v-149z" />
<glyph unicode="&#xbf;" horiz-adv-x="887" d="M102 -86q0 -94 35 -156q31 -63 84 -100t123 -51q70 -17 143 -17q54 2 111 13q55 10 102 22q101 31 105 33v223q-4 -2 -98 -28q-91 -29 -177 -31q-147 -2 -145 96q0 55 29 98q26 39 63 76q57 49 107 123q49 74 51 209q-8 123 -12 129h-263q9 -6 15 -139q-2 -70 -37 -117 q-35 -51 -84 -92q-47 -35 -96 -101q-23 -32 -39 -79q-17 -50 -17 -111zM295 895q0 -84 59 -145q56 -64 146 -64t147 64q57 57 60 145q0 88 -58 149q-57 60 -149 62q-90 -2 -146 -62q-59 -61 -59 -149z" />
<glyph unicode="&#xc0;" d="M0 0h303l59 279h402l59 -279h303l-385 1433h-356zM106 1802l316 -266h270l-221 266h-365zM410 500l75 356q72 362 78 395q6 -35 78 -395l76 -356h-307z" />
<glyph unicode="&#xc1;" d="M0 0h303l59 279h402l59 -279h303l-385 1433h-356zM410 500l75 356q72 362 78 395q6 -35 78 -395l76 -356h-307zM424 1536h270l316 266h-365z" />
<glyph unicode="&#xc2;" d="M0 0h303l59 279h402l59 -279h303l-385 1433h-356zM147 1536h312l104 113l105 -113h311l-272 266h-287zM410 500l75 356q72 362 78 395q6 -35 78 -395l76 -356h-307z" />
<glyph unicode="&#xc3;" d="M0 0h303l59 279h402l59 -279h303l-385 1433h-356zM236 1536q94 61 163 61q86 -2 172 -37q43 -12 86 -22q43 -14 84 -14q70 0 150 53v244q-80 -52 -137 -52q-68 2 -154 37q-86 31 -186 33q-84 0 -178 -57v-246zM410 500l75 356q72 362 78 395q6 -35 78 -395l76 -356h-307z " />
<glyph unicode="&#xc4;" d="M0 0h303l59 279h402l59 -279h303l-385 1433h-356zM147 1679q0 -69 48 -114q45 -50 114 -50q72 0 117 50q45 45 45 114q0 70 -45 117q-45 45 -117 47q-69 -2 -114 -47q-48 -47 -48 -117zM410 500l75 356q72 362 78 395q6 -35 78 -395l76 -356h-307zM657 1679 q0 -69 47 -114q46 -50 115 -50q72 0 117 50q45 45 45 114q0 70 -45 117q-45 45 -117 47q-69 -2 -115 -47q-47 -47 -47 -117z" />
<glyph unicode="&#xc5;" d="M0 0h303l59 279h402l59 -279h303l-385 1433h-356zM281 1675q4 -237 282 -239q279 2 283 239q0 115 -76 178q-76 64 -207 64q-280 -4 -282 -242zM410 500l75 356q72 362 78 395q6 -35 78 -395l76 -356h-307zM473 1675q0 92 90 94q88 0 90 -94q-2 -94 -90 -92q-90 2 -90 92 z" />
<glyph unicode="&#xc6;" horiz-adv-x="1433" d="M-31 0h322l82 279h272v-279h737v244h-450v415h409v222h-409v309h440l21 243h-951zM422 500l119 409q90 324 104 375v-784h-223z" />
<glyph unicode="&#xc7;" horiz-adv-x="942" d="M102 717q2 -385 111 -543q49 -82 115 -123q65 -43 135 -57q28 -45 33 -121q2 -70 -68 -72q-41 2 -106 25q-72 20 -76 20v-208q2 0 73 -23q66 -23 148 -25q123 0 201 48q75 47 77 178q0 61 -22 102q-23 39 -51 64q110 12 170 32q59 19 59 21v231q-2 -2 -86 -24 q-82 -25 -184 -27q-115 -2 -176 113q-66 112 -66 389q0 157 23 258q20 100 57 153q37 54 84 74q47 19 98 19q88 -3 168 -25q78 -23 82 -25v232q0 2 -70 26q-71 23 -194 25q-76 0 -164 -21q-90 -22 -176 -98q-82 -74 -137 -223q-58 -147 -58 -395z" />
<glyph unicode="&#xc8;" horiz-adv-x="1014" d="M143 1802l316 -266h270l-221 266h-365zM164 0h798v244h-511v415h430v222h-430v309h501l21 243h-809v-1433z" />
<glyph unicode="&#xc9;" horiz-adv-x="1014" d="M164 0h798v244h-511v415h430v222h-430v309h501l21 243h-809v-1433zM389 1536h270l316 266h-365z" />
<glyph unicode="&#xca;" horiz-adv-x="1014" d="M143 1536h312l104 113l105 -113h311l-273 266h-286zM164 0h798v244h-511v415h430v222h-430v309h501l21 243h-809v-1433z" />
<glyph unicode="&#xcb;" horiz-adv-x="1014" d="M143 1679q0 -69 47 -114q46 -50 115 -50q72 0 117 50q45 45 45 114q0 70 -45 117q-45 45 -117 47q-69 -2 -115 -47q-47 -47 -47 -117zM164 0h798v244h-511v415h430v222h-430v309h501l21 243h-809v-1433zM653 1679q0 -69 47 -114q45 -50 115 -50q72 0 117 50q45 45 45 114 q0 70 -45 117q-45 45 -117 47q-70 -2 -115 -47q-47 -47 -47 -117z" />
<glyph unicode="&#xcc;" horiz-adv-x="618" d="M-141 1802l315 -266h270l-221 266h-364zM164 0h291v1433h-291v-1433z" />
<glyph unicode="&#xcd;" horiz-adv-x="618" d="M164 0h291v1433h-291v-1433zM164 1536h270l316 266h-365z" />
<glyph unicode="&#xce;" horiz-adv-x="618" d="M-106 1536h311l104 113l105 -113h311l-272 266h-287zM164 0h291v1433h-291v-1433z" />
<glyph unicode="&#xcf;" horiz-adv-x="618" d="M-66 1679q3 -69 48 -114q45 -50 114 -50q72 0 117 50q45 45 45 114q0 70 -45 117q-45 45 -117 47q-69 -2 -114 -47q-45 -47 -48 -117zM164 0h291v1433h-291v-1433zM362 1679q0 -69 48 -114q45 -50 114 -50q72 0 117 50q45 45 45 114q0 70 -45 117q-45 45 -117 47 q-69 -2 -114 -47q-48 -47 -48 -117z" />
<glyph unicode="&#xd0;" horiz-adv-x="1249" d="M41 659h143v-659h312q151 0 272 29q121 26 205 102q86 76 131 219q43 141 43 367q0 233 -43 379q-45 143 -131 215q-84 75 -205 100q-121 22 -272 22h-312v-573h-143v-201zM471 223v436h225v201h-225v350h92q72 0 127 -16q55 -19 92 -70q41 -51 60 -147q18 -98 18 -260 q0 -158 -20 -256q-21 -99 -62 -150q-39 -51 -98 -67q-60 -21 -133 -21h-76z" />
<glyph unicode="&#xd1;" horiz-adv-x="1290" d="M164 0h287v530q-3 148 -17 306q-16 159 -18 165q10 -39 174 -424l282 -577h254v1433h-286v-499q20 -414 32 -471q0 4 -51 145q-51 135 -129 299l-258 526h-270v-1433zM317 1536q95 61 164 61q86 -2 172 -37q43 -12 86 -22q43 -14 84 -14q70 0 150 53v244 q-80 -52 -137 -52q-68 2 -154 37q-86 31 -186 33q-84 0 -179 -57v-246z" />
<glyph unicode="&#xd2;" horiz-adv-x="1188" d="M82 717q0 -256 51 -406q47 -149 123 -221q78 -72 166 -90q88 -20 172 -20t174 18q88 18 164 90q78 72 125 221q47 150 49 408q-2 256 -49 407q-52 148 -129 219q-78 72 -166 95q-88 16 -168 16q-76 0 -164 -16q-88 -21 -166 -93q-78 -71 -129 -219q-53 -151 -53 -409z M143 1802l316 -266h270l-221 266h-365zM369 717q0 321 59 432q31 57 74 82q41 18 92 18q53 0 96 -20q41 -23 70 -84q59 -113 59 -428q0 -168 -16 -271q-17 -106 -47 -163q-31 -58 -72 -78q-41 -21 -90 -21q-92 -4 -156 101q-30 57 -49 163q-20 105 -20 269z" />
<glyph unicode="&#xd3;" horiz-adv-x="1188" d="M82 717q0 -256 51 -406q47 -149 123 -221q78 -72 166 -90q88 -20 172 -20t174 18q88 18 164 90q78 72 125 221q47 150 49 408q-2 256 -49 407q-52 148 -129 219q-78 72 -166 95q-88 16 -168 16q-76 0 -164 -16q-88 -21 -166 -93q-78 -71 -129 -219q-53 -151 -53 -409z M369 717q0 321 59 432q31 57 74 82q41 18 92 18q53 0 96 -20q41 -23 70 -84q59 -113 59 -428q0 -168 -16 -271q-17 -106 -47 -163q-31 -58 -72 -78q-41 -21 -90 -21q-92 -4 -156 101q-30 57 -49 163q-20 105 -20 269zM430 1536h270l316 266h-365z" />
<glyph unicode="&#xd4;" horiz-adv-x="1188" d="M82 717q0 -256 51 -406q47 -149 123 -221q78 -72 166 -90q88 -20 172 -20t174 18q88 18 164 90q78 72 125 221q47 150 49 408q-2 256 -49 407q-52 148 -129 219q-78 72 -166 95q-88 16 -168 16q-76 0 -164 -16q-88 -21 -166 -93q-78 -71 -129 -219q-53 -151 -53 -409z M178 1536h311l105 113l104 -113h312l-273 266h-286zM369 717q0 321 59 432q31 57 74 82q41 18 92 18q53 0 96 -20q41 -23 70 -84q59 -113 59 -428q0 -168 -16 -271q-17 -106 -47 -163q-31 -58 -72 -78q-41 -21 -90 -21q-92 -4 -156 101q-30 57 -49 163q-20 105 -20 269z" />
<glyph unicode="&#xd5;" horiz-adv-x="1188" d="M82 717q0 -256 51 -406q47 -149 123 -221q78 -72 166 -90q88 -20 172 -20t174 18q88 18 164 90q78 72 125 221q47 150 49 408q-2 256 -49 407q-52 148 -129 219q-78 72 -166 95q-88 16 -168 16q-76 0 -164 -16q-88 -21 -166 -93q-78 -71 -129 -219q-53 -151 -53 -409z M266 1536q94 61 164 61q86 -2 172 -37q43 -12 86 -22q43 -14 84 -14q70 0 150 53v244q-80 -52 -138 -52q-67 2 -153 37q-86 31 -187 33q-84 0 -178 -57v-246zM369 717q0 321 59 432q31 57 74 82q41 18 92 18q53 0 96 -20q41 -23 70 -84q59 -113 59 -428q0 -168 -16 -271 q-17 -106 -47 -163q-31 -58 -72 -78q-41 -21 -90 -21q-92 -4 -156 101q-30 57 -49 163q-20 105 -20 269z" />
<glyph unicode="&#xd6;" horiz-adv-x="1188" d="M82 717q0 -256 51 -406q47 -149 123 -221q78 -72 166 -90q88 -20 172 -20t174 18q88 18 164 90q78 72 125 221q47 150 49 408q-2 256 -49 407q-52 148 -129 219q-78 72 -166 95q-88 16 -168 16q-76 0 -164 -16q-88 -21 -166 -93q-78 -71 -129 -219q-53 -151 -53 -409z M178 1679q0 -69 47 -114q45 -50 115 -50q72 0 117 50q45 45 45 114q0 70 -45 117q-45 45 -117 47q-70 -2 -115 -47q-47 -47 -47 -117zM369 717q0 321 59 432q31 57 74 82q41 18 92 18q53 0 96 -20q41 -23 70 -84q59 -113 59 -428q0 -168 -16 -271q-17 -106 -47 -163 q-31 -58 -72 -78q-41 -21 -90 -21q-92 -4 -156 101q-30 57 -49 163q-20 105 -20 269zM688 1679q0 -69 47 -114q45 -50 115 -50q72 0 117 50q45 45 45 114q0 70 -45 117q-45 45 -117 47q-70 -2 -115 -47q-47 -47 -47 -117z" />
<glyph unicode="&#xd7;" horiz-adv-x="1173" d="M123 426l203 -203l260 260l262 -260l203 203l-263 260l263 260l-203 203l-262 -260l-260 260l-203 -203l260 -260z" />
<glyph unicode="&#xd8;" horiz-adv-x="1188" d="M82 717q0 -258 51 -410q47 -149 125 -221l-125 -311h168l92 231q105 -29 201 -26q84 0 174 18q88 18 164 90q78 72 125 221q47 150 49 408q-2 256 -49 405q-52 148 -129 219l127 318h-168l-94 -234q-25 11 -50 17q-24 6 -51 8q-51 4 -98 4q-76 0 -164 -16 q-88 -21 -166 -93q-78 -71 -129 -219q-53 -151 -53 -409zM369 717q0 321 59 432q31 57 74 82q41 18 92 18q65 0 115 -37l-318 -792q-22 110 -22 297zM481 225l318 791q20 -111 20 -299q0 -168 -16 -271q-17 -106 -47 -163q-31 -58 -72 -78q-41 -21 -90 -21q-62 -2 -113 41z " />
<glyph unicode="&#xd9;" horiz-adv-x="1241" d="M154 442q-2 -225 98 -342q102 -120 368 -120q259 2 365 122q104 121 102 340v991h-286v-982q0 -134 -43 -187q-45 -57 -138 -55q-96 -2 -139 55q-41 58 -41 187v982h-286v-991zM178 1802l316 -266h270l-221 266h-365z" />
<glyph unicode="&#xda;" horiz-adv-x="1241" d="M154 442q-2 -225 98 -342q102 -120 368 -120q259 2 365 122q104 121 102 340v991h-286v-982q0 -134 -43 -187q-45 -57 -138 -55q-96 -2 -139 55q-41 58 -41 187v982h-286v-991zM461 1536h270l315 266h-364z" />
<glyph unicode="&#xdb;" horiz-adv-x="1241" d="M154 442q-2 -225 98 -342q102 -120 368 -120q259 2 365 122q104 121 102 340v991h-286v-982q0 -134 -43 -187q-45 -57 -138 -55q-96 -2 -139 55q-41 58 -41 187v982h-286v-991zM205 1536h311l104 113l105 -113h311l-272 266h-287z" />
<glyph unicode="&#xdc;" horiz-adv-x="1241" d="M154 442q-2 -225 98 -342q102 -120 368 -120q259 2 365 122q104 121 102 340v991h-286v-982q0 -134 -43 -187q-45 -57 -138 -55q-96 -2 -139 55q-41 58 -41 187v982h-286v-991zM205 1679q0 -69 47 -114q45 -50 115 -50q71 0 116 50q45 45 45 114q0 70 -45 117 q-45 45 -116 47q-70 -2 -115 -47q-47 -47 -47 -117zM715 1679q0 -69 47 -114q45 -50 114 -50q72 0 117 50q45 45 45 114q0 70 -45 117q-45 45 -117 47q-69 -2 -114 -47q-47 -47 -47 -117z" />
<glyph unicode="&#xdd;" horiz-adv-x="1044" d="M-20 1433l399 -894v-539h287v539l399 894h-326l-217 -651l-217 651h-325zM369 1536h270l315 266h-364z" />
<glyph unicode="&#xde;" d="M164 0h287v233q299 3 456 113q158 109 158 391q0 80 -8 144q-11 61 -29 110q-39 98 -111 150q-147 92 -401 88h-65v204h-287v-1433zM451 434v574h94q51 0 94 -7q43 -8 74 -34q30 -27 49 -80q16 -56 16 -150q0 -186 -84 -246q-41 -28 -102 -40q-31 -7 -64 -11 q-37 -2 -77 -6z" />
<glyph unicode="&#xdf;" horiz-adv-x="1257" d="M164 0h287v1055q-3 100 30 159q31 60 127 62q135 -2 133 -117q0 -57 -20 -100q-19 -43 -47 -82q-33 -45 -60 -103q-30 -59 -30 -143q0 -137 120 -211l105 -61q45 -23 76 -49q28 -29 28 -86q0 -121 -135 -117q-61 2 -137 18q-78 15 -82 17v-232l72 -14q67 -14 168 -16 q82 0 153 16q72 14 127 53q56 39 86 109q31 69 31 176q-2 147 -61 225q-27 41 -62 68q-37 24 -76 43l-82 43q-32 18 -67 39q-15 10 -25 22q-12 10 -12 25q0 39 35 63q33 27 73 64q43 39 72 98q29 57 31 145q2 326 -428 326q-238 -2 -336 -115q-96 -114 -94 -325v-1055z" />
<glyph unicode="&#xe0;" d="M92 330q0 -109 31 -176q29 -70 76 -109q47 -37 100 -51q51 -14 100 -14q72 2 127 20q54 16 90 39q76 53 76 57l31 -96h250v754q0 112 -29 182q-31 69 -86 106q-53 39 -125 54q-72 10 -151 10q-158 -2 -271 -33q-119 -31 -121 -33v-227q2 2 115 33q107 26 227 28 q74 2 115 -18q39 -23 39 -100v-78h-188q-60 0 -129 -10q-70 -15 -133 -52q-62 -34 -101 -104q-43 -70 -43 -182zM164 1597l315 -327h271l-242 327h-344zM379 336q0 102 53 143q53 39 172 39l82 2v-274q-2 -2 -53 -25q-51 -26 -129 -29q-56 -2 -88 31q-37 33 -37 113z" />
<glyph unicode="&#xe1;" d="M92 330q0 -109 31 -176q29 -70 76 -109q47 -37 100 -51q51 -14 100 -14q72 2 127 20q54 16 90 39q76 53 76 57l31 -96h250v754q0 112 -29 182q-31 69 -86 106q-53 39 -125 54q-72 10 -151 10q-158 -2 -271 -33q-119 -31 -121 -33v-227q2 2 115 33q107 26 227 28 q74 2 115 -18q39 -23 39 -100v-78h-188q-60 0 -129 -10q-70 -15 -133 -52q-62 -34 -101 -104q-43 -70 -43 -182zM379 336q0 102 53 143q53 39 172 39l82 2v-274q-2 -2 -53 -25q-51 -26 -129 -29q-56 -2 -88 31q-37 33 -37 113zM410 1270h270l315 327h-344z" />
<glyph unicode="&#xe2;" d="M92 330q0 -109 31 -176q29 -70 76 -109q47 -37 100 -51q51 -14 100 -14q72 2 127 20q54 16 90 39q76 53 76 57l31 -96h250v754q0 112 -29 182q-31 69 -86 106q-53 39 -125 54q-72 10 -151 10q-158 -2 -271 -33q-119 -31 -121 -33v-227q2 2 115 33q107 26 227 28 q74 2 115 -18q39 -23 39 -100v-78h-188q-60 0 -129 -10q-70 -15 -133 -52q-62 -34 -101 -104q-43 -70 -43 -182zM127 1270h311l105 147l104 -147h311l-282 327h-266zM379 336q0 102 53 143q53 39 172 39l82 2v-274q-2 -2 -53 -25q-51 -26 -129 -29q-56 -2 -88 31 q-37 33 -37 113z" />
<glyph unicode="&#xe3;" d="M92 330q0 -109 31 -176q29 -70 76 -109q47 -37 100 -51q51 -14 100 -14q72 2 127 20q54 16 90 39q76 53 76 57l31 -96h250v754q0 112 -29 182q-31 69 -86 106q-53 39 -125 54q-72 10 -151 10q-158 -2 -271 -33q-119 -31 -121 -33v-227q2 2 115 33q107 26 227 28 q74 2 115 -18q39 -23 39 -100v-78h-188q-60 0 -129 -10q-70 -15 -133 -52q-62 -34 -101 -104q-43 -70 -43 -182zM236 1290q90 62 155 62q55 0 98 -13q43 -12 78 -32q37 -19 80 -33q39 -17 94 -17q70 0 150 54v243q-78 -51 -131 -51q-78 2 -152 45q-37 21 -82 33 q-49 12 -112 12q-84 0 -178 -57v-246zM379 336q0 102 53 143q53 39 172 39l82 2v-274q-2 -2 -53 -25q-51 -26 -129 -29q-56 -2 -88 31q-37 33 -37 113z" />
<glyph unicode="&#xe4;" d="M92 330q0 -109 31 -176q29 -70 76 -109q47 -37 100 -51q51 -14 100 -14q72 2 127 20q54 16 90 39q76 53 76 57l31 -96h250v754q0 112 -29 182q-31 69 -86 106q-53 39 -125 54q-72 10 -151 10q-158 -2 -271 -33q-119 -31 -121 -33v-227q2 2 115 33q107 26 227 28 q74 2 115 -18q39 -23 39 -100v-78h-188q-60 0 -129 -10q-70 -15 -133 -52q-62 -34 -101 -104q-43 -70 -43 -182zM147 1393q0 -70 48 -115q45 -49 114 -49q72 0 117 49q45 45 45 115q0 69 -45 116q-45 45 -117 47q-69 -2 -114 -47q-48 -47 -48 -116zM379 336q0 102 53 143 q53 39 172 39l82 2v-274q-2 -2 -53 -25q-51 -26 -129 -29q-56 -2 -88 31q-37 33 -37 113zM657 1393q0 -70 47 -115q46 -49 115 -49q72 0 117 49q45 45 45 115q0 69 -45 116q-45 45 -117 47q-69 -2 -115 -47q-47 -47 -47 -116z" />
<glyph unicode="&#xe5;" d="M92 330q0 -109 31 -176q29 -70 76 -109q47 -37 100 -51q51 -14 100 -14q72 2 127 20q54 16 90 39q76 53 76 57l31 -96h250v754q0 112 -29 182q-31 69 -86 106q-53 39 -125 54q-72 10 -151 10q-158 -2 -271 -33q-119 -31 -121 -33v-227q2 2 115 33q107 26 227 28 q74 2 115 -18q39 -23 39 -100v-78h-188q-60 0 -129 -10q-70 -15 -133 -52q-62 -34 -101 -104q-43 -70 -43 -182zM301 1399q4 -246 283 -250q278 6 282 250q0 116 -76 182q-75 65 -206 68q-281 -7 -283 -250zM379 336q0 102 53 143q53 39 172 39l82 2v-274q-2 -2 -53 -25 q-51 -26 -129 -29q-56 -2 -88 31q-37 33 -37 113zM496 1399q-2 96 88 98q88 0 88 -98q-2 -99 -88 -99q-88 2 -88 99z" />
<glyph unicode="&#xe6;" horiz-adv-x="1679" d="M92 330q0 -111 33 -181q33 -69 82 -106q53 -37 115 -49q59 -14 118 -14q242 -3 353 192q36 -59 79 -96q39 -39 88 -60q99 -36 228 -36q67 0 129 10q59 10 104 18q96 25 99 27v227q-5 -2 -109 -26q-104 -27 -223 -29q-72 -2 -137 43q-31 24 -54 74q-22 45 -26 124h614 l2 95q6 174 -33 286q-41 111 -106 170q-66 62 -144 84q-77 23 -157 23q-193 -2 -283 -119q-65 119 -282 119q-158 -2 -271 -33q-119 -31 -121 -33v-227q2 2 115 33q107 26 227 28q74 0 115 -20q39 -27 39 -98v-78h-188q-60 0 -129 -10q-70 -15 -133 -52q-62 -34 -101 -104 q-43 -70 -43 -182zM379 336q0 102 53 143q53 39 172 39l82 2v-110q0 -86 -41 -150q-45 -65 -141 -68q-56 -2 -88 31q-37 33 -37 113zM971 629q2 161 45 227q39 63 131 63q80 3 119 -57q38 -61 41 -233h-336z" />
<glyph unicode="&#xe7;" horiz-adv-x="881" d="M102 537q2 -297 109 -414q49 -60 111 -90q59 -33 122 -43q29 -45 31 -117q2 -70 -67 -72q-41 2 -107 25q-72 20 -76 20v-208q2 0 74 -23q66 -23 147 -25q123 0 201 48q76 47 78 178q0 61 -23 104q-22 39 -53 64q182 36 191 43v227q-4 -2 -86 -23q-80 -22 -154 -24 q-92 -4 -149 57q-13 19 -23 45q-12 25 -20 58q-19 63 -19 170q0 118 21 190q20 70 51 102q30 37 71 47q41 9 84 9q62 -2 140 -21q80 -22 84 -24v219q0 2 -64 24q-63 21 -166 23q-69 0 -155 -14q-88 -19 -166 -76q-80 -58 -131 -172q-56 -115 -56 -307z" />
<glyph unicode="&#xe8;" horiz-adv-x="1096" d="M102 543q0 -187 50 -299q45 -113 118 -170q76 -56 162 -76q88 -18 172 -18q68 0 129 10q60 10 105 18q96 25 98 27v227q-4 -2 -109 -26q-104 -27 -223 -29q-72 -2 -137 43q-31 24 -53 74q-23 45 -27 124h614l2 95q7 174 -32 286q-41 111 -107 170q-65 62 -143 84 q-78 23 -158 23t-162 -23q-39 -12 -75 -32q-39 -23 -74 -54q-66 -59 -107 -170q-43 -112 -43 -284zM137 1597l316 -327h270l-242 327h-344zM387 629q2 161 45 227q39 63 131 63q80 3 119 -57q39 -61 41 -233h-336z" />
<glyph unicode="&#xe9;" horiz-adv-x="1096" d="M102 543q0 -187 50 -299q45 -113 118 -170q76 -56 162 -76q88 -18 172 -18q68 0 129 10q60 10 105 18q96 25 98 27v227q-4 -2 -109 -26q-104 -27 -223 -29q-72 -2 -137 43q-31 24 -53 74q-23 45 -27 124h614l2 95q7 174 -32 286q-41 111 -107 170q-65 62 -143 84 q-78 23 -158 23t-162 -23q-39 -12 -75 -32q-39 -23 -74 -54q-66 -59 -107 -170q-43 -112 -43 -284zM373 1270h270l315 327h-344zM387 629q2 161 45 227q39 63 131 63q80 3 119 -57q39 -61 41 -233h-336z" />
<glyph unicode="&#xea;" horiz-adv-x="1096" d="M102 543q0 -187 50 -299q45 -113 118 -170q76 -56 162 -76q88 -18 172 -18q68 0 129 10q60 10 105 18q96 25 98 27v227q-4 -2 -109 -26q-104 -27 -223 -29q-72 -2 -137 43q-31 24 -53 74q-23 45 -27 124h614l2 95q7 174 -32 286q-41 111 -107 170q-65 62 -143 84 q-78 23 -158 23t-162 -23q-39 -12 -75 -32q-39 -23 -74 -54q-66 -59 -107 -170q-43 -112 -43 -284zM133 1270h311l105 147l104 -147h312l-283 327h-266zM387 629q2 161 45 227q39 63 131 63q80 3 119 -57q39 -61 41 -233h-336z" />
<glyph unicode="&#xeb;" horiz-adv-x="1096" d="M102 543q0 -187 50 -299q45 -113 118 -170q76 -56 162 -76q88 -18 172 -18q68 0 129 10q60 10 105 18q96 25 98 27v227q-4 -2 -109 -26q-104 -27 -223 -29q-72 -2 -137 43q-31 24 -53 74q-23 45 -27 124h614l2 95q7 174 -32 286q-41 111 -107 170q-65 62 -143 84 q-78 23 -158 23t-162 -23q-39 -12 -75 -32q-39 -23 -74 -54q-66 -59 -107 -170q-43 -112 -43 -284zM131 1393q0 -70 47 -115q45 -49 115 -49q72 0 117 49q45 45 45 115q0 69 -45 116q-45 45 -117 47q-70 -2 -115 -47q-47 -47 -47 -116zM387 629q2 161 45 227q39 63 131 63 q80 3 119 -57q39 -61 41 -233h-336zM641 1393q0 -70 47 -115q45 -49 115 -49q71 0 116 49q46 45 46 115q0 69 -46 116q-45 45 -116 47q-70 -2 -115 -47q-47 -47 -47 -116z" />
<glyph unicode="&#xec;" horiz-adv-x="614" d="M-135 1597l315 -327h271l-242 327h-344zM164 0h287v1085h-287v-1085z" />
<glyph unicode="&#xed;" horiz-adv-x="614" d="M164 0h287v1085h-287v-1085zM164 1270h270l316 327h-345z" />
<glyph unicode="&#xee;" horiz-adv-x="614" d="M-109 1270h312l104 147l105 -147h311l-283 327h-266zM164 0h287v1085h-287v-1085z" />
<glyph unicode="&#xef;" horiz-adv-x="614" d="M-68 1393q2 -70 48 -115q45 -49 114 -49q72 0 117 49q45 45 45 115q0 69 -45 116q-45 45 -117 47q-69 -2 -114 -47q-46 -47 -48 -116zM164 0h287v1085h-287v-1085zM360 1393q0 -70 48 -115q45 -49 114 -49q72 0 117 49q45 45 45 115q0 69 -45 116q-45 45 -117 47 q-69 -2 -114 -47q-48 -47 -48 -116z" />
<glyph unicode="&#xf0;" horiz-adv-x="1167" d="M82 465q0 -154 47 -248q45 -98 117 -149q71 -52 155 -68q84 -20 162 -20q90 0 180 24q88 23 160 86q76 64 119 186q41 123 43 318q0 397 -186 614l145 74v188l-279 -143q-213 141 -557 147v-221q166 0 308 -53l-97 -49v-189l254 132q86 -89 115 -246q0 2 -68 53 q-32 23 -86 37q-51 14 -123 14q-67 0 -139 -18q-71 -21 -133 -76q-59 -55 -98 -149q-39 -97 -39 -244zM369 477q0 164 51 217q49 47 139 45t154 -32q61 -33 63 -35q0 -17 2 -119q-2 -223 -61 -295q-27 -37 -68 -51q-39 -15 -86 -15q-82 -2 -137 52q-25 30 -41 88 q-16 57 -16 145z" />
<glyph unicode="&#xf1;" horiz-adv-x="1259" d="M164 0h287v790q2 3 77 41q72 35 168 37q70 0 99 -20q24 -25 24 -82v-766h287v782q0 183 -82 256q-82 70 -219 68q-74 0 -139 -21q-66 -18 -115 -47q-105 -65 -107 -69l-41 116h-239v-1085zM303 1290q90 62 156 62q55 0 98 -13q43 -12 78 -32q37 -19 80 -33q39 -17 94 -17 q70 0 149 54v243q-77 -51 -131 -51q-77 2 -151 45q-37 21 -82 33q-49 12 -113 12q-84 0 -178 -57v-246z" />
<glyph unicode="&#xf2;" horiz-adv-x="1155" d="M82 543q0 -178 49 -291q45 -113 119 -172q76 -57 162 -78q84 -22 165 -22q84 0 173 20q86 20 157 78q74 59 121 172q45 110 45 293q0 182 -45 295q-45 112 -117 170q-71 59 -159 79q-86 19 -175 19q-83 0 -169 -19q-86 -22 -162 -84q-72 -59 -117 -170q-47 -112 -47 -290 zM164 1597l315 -327h271l-242 327h-344zM369 543q0 123 18 194q16 74 45 109q31 37 68 47t77 10q89 4 150 -53q29 -35 45 -109q14 -73 14 -198q0 -119 -18 -191q-18 -71 -49 -108q-31 -35 -68 -47q-37 -13 -74 -13q-32 0 -67 15q-37 12 -70 47q-30 37 -49 108 q-22 70 -22 189z" />
<glyph unicode="&#xf3;" horiz-adv-x="1155" d="M82 543q0 -178 49 -291q45 -113 119 -172q76 -57 162 -78q84 -22 165 -22q84 0 173 20q86 20 157 78q74 59 121 172q45 110 45 293q0 182 -45 295q-45 112 -117 170q-71 59 -159 79q-86 19 -175 19q-83 0 -169 -19q-86 -22 -162 -84q-72 -59 -117 -170q-47 -112 -47 -290 zM369 543q0 123 18 194q16 74 45 109q31 37 68 47t77 10q89 4 150 -53q29 -35 45 -109q14 -73 14 -198q0 -119 -18 -191q-18 -71 -49 -108q-31 -35 -68 -47q-37 -13 -74 -13q-32 0 -67 15q-37 12 -70 47q-30 37 -49 108q-22 70 -22 189zM410 1270h270l315 327h-344z" />
<glyph unicode="&#xf4;" horiz-adv-x="1155" d="M82 543q0 -178 49 -291q45 -113 119 -172q76 -57 162 -78q84 -22 165 -22q84 0 173 20q86 20 157 78q74 59 121 172q45 110 45 293q0 182 -45 295q-45 112 -117 170q-71 59 -159 79q-86 19 -175 19q-83 0 -169 -19q-86 -22 -162 -84q-72 -59 -117 -170q-47 -112 -47 -290 zM162 1270h311l104 147l105 -147h311l-282 327h-267zM369 543q0 123 18 194q16 74 45 109q31 37 68 47t77 10q89 4 150 -53q29 -35 45 -109q14 -73 14 -198q0 -119 -18 -191q-18 -71 -49 -108q-31 -35 -68 -47q-37 -13 -74 -13q-32 0 -67 15q-37 12 -70 47q-30 37 -49 108 q-22 70 -22 189z" />
<glyph unicode="&#xf5;" horiz-adv-x="1155" d="M82 543q0 -178 49 -291q45 -113 119 -172q76 -57 162 -78q84 -22 165 -22q84 0 173 20q86 20 157 78q74 59 121 172q45 110 45 293q0 182 -45 295q-45 112 -117 170q-71 59 -159 79q-86 19 -175 19q-83 0 -169 -19q-86 -22 -162 -84q-72 -59 -117 -170q-47 -112 -47 -290 zM250 1290q90 62 155 62q56 0 99 -13q43 -12 78 -32q36 -19 79 -33q39 -17 95 -17q69 0 149 54v243q-78 -51 -131 -51q-78 2 -151 45q-37 21 -82 33q-50 12 -113 12q-84 0 -178 -57v-246zM369 543q0 123 18 194q16 74 45 109q31 37 68 47t77 10q89 4 150 -53q29 -35 45 -109 q14 -73 14 -198q0 -119 -18 -191q-18 -71 -49 -108q-31 -35 -68 -47q-37 -13 -74 -13q-32 0 -67 15q-37 12 -70 47q-30 37 -49 108q-22 70 -22 189z" />
<glyph unicode="&#xf6;" horiz-adv-x="1155" d="M82 543q0 -178 49 -291q45 -113 119 -172q76 -57 162 -78q84 -22 165 -22q84 0 173 20q86 20 157 78q74 59 121 172q45 110 45 293q0 182 -45 295q-45 112 -117 170q-71 59 -159 79q-86 19 -175 19q-83 0 -169 -19q-86 -22 -162 -84q-72 -59 -117 -170q-47 -112 -47 -290 zM162 1393q0 -70 47 -115q45 -49 115 -49q71 0 116 49q45 45 45 115q0 69 -45 116q-45 45 -116 47q-70 -2 -115 -47q-47 -47 -47 -116zM369 543q0 123 18 194q16 74 45 109q31 37 68 47t77 10q89 4 150 -53q29 -35 45 -109q14 -73 14 -198q0 -119 -18 -191q-18 -71 -49 -108 q-31 -35 -68 -47q-37 -13 -74 -13q-32 0 -67 15q-37 12 -70 47q-30 37 -49 108q-22 70 -22 189zM672 1393q0 -70 47 -115q45 -49 114 -49q72 0 117 49q45 45 45 115q0 69 -45 116q-45 45 -117 47q-69 -2 -114 -47q-47 -47 -47 -116z" />
<glyph unicode="&#xf7;" horiz-adv-x="1292" d="M143 553h1006v266h-1006v-266zM461 231q0 -77 55 -133q51 -57 131 -57q82 0 133 57q51 56 51 133q0 80 -51 134q-51 53 -133 55q-80 -2 -131 -53q-55 -54 -55 -136zM461 1143q0 -78 55 -133q51 -58 131 -58q82 0 133 58q51 55 51 133q0 80 -51 133t-133 55 q-80 -2 -131 -53q-55 -53 -55 -135z" />
<glyph unicode="&#xf8;" horiz-adv-x="1155" d="M82 543q0 -193 55 -307q51 -115 131 -173l-135 -288h168l107 225q86 -20 169 -20q84 0 173 20q86 20 157 78q74 59 121 172q45 110 45 293q0 196 -51 311q-53 117 -135 170l135 287h-168l-104 -224q-89 19 -173 19q-83 0 -169 -19q-86 -22 -162 -84q-72 -59 -117 -170 q-47 -112 -47 -290zM369 543q0 123 18 194q16 74 45 109q31 37 68 47t77 10q43 0 80 -10l-264 -561q-24 76 -24 211zM500 199l264 563q22 -76 22 -219q0 -119 -18 -191q-18 -71 -49 -108q-31 -35 -68 -47q-37 -13 -74 -13q-36 0 -77 15z" />
<glyph unicode="&#xf9;" horiz-adv-x="1218" d="M154 297q2 -176 90 -248q86 -69 217 -69q67 2 127 24q57 21 100 45q90 62 92 66l39 -115h236v1085h-287v-798q-2 -2 -70 -37q-67 -35 -149 -37q-43 -2 -76 20q-33 23 -33 95v757h-286v-788zM164 1597l315 -327h271l-242 327h-344z" />
<glyph unicode="&#xfa;" horiz-adv-x="1218" d="M154 297q2 -176 90 -248q86 -69 217 -69q67 2 127 24q57 21 100 45q90 62 92 66l39 -115h236v1085h-287v-798q-2 -2 -70 -37q-67 -35 -149 -37q-43 -2 -76 20q-33 23 -33 95v757h-286v-788zM451 1270h270l315 327h-344z" />
<glyph unicode="&#xfb;" horiz-adv-x="1218" d="M154 297q2 -176 90 -248q86 -69 217 -69q67 2 127 24q57 21 100 45q90 62 92 66l39 -115h236v1085h-287v-798q-2 -2 -70 -37q-67 -35 -149 -37q-43 -2 -76 20q-33 23 -33 95v757h-286v-788zM195 1270h311l104 147l105 -147h311l-283 327h-266z" />
<glyph unicode="&#xfc;" horiz-adv-x="1218" d="M154 297q2 -176 90 -248q86 -69 217 -69q67 2 127 24q57 21 100 45q90 62 92 66l39 -115h236v1085h-287v-798q-2 -2 -70 -37q-67 -35 -149 -37q-43 -2 -76 20q-33 23 -33 95v757h-286v-788zM192 1393q0 -70 48 -115q45 -49 114 -49q72 0 117 49q45 45 45 115 q0 69 -45 116q-45 45 -117 47q-69 -2 -114 -47q-48 -47 -48 -116zM702 1393q0 -70 48 -115q45 -49 114 -49q72 0 117 49q45 45 45 115q0 69 -45 116q-45 45 -117 47q-69 -2 -114 -47q-48 -47 -48 -116z" />
<glyph unicode="&#xfd;" horiz-adv-x="973" d="M-20 1085l417 -1050l-14 -62q-14 -65 -47 -110q-37 -49 -100 -51q-56 2 -125 18q-76 16 -78 16v-215q2 0 78 -20q71 -19 155 -21q111 0 201 52q92 53 137 194l389 1249h-305l-178 -755l-213 755h-317zM328 1270h270l315 327h-344z" />
<glyph unicode="&#xfe;" horiz-adv-x="1208" d="M164 -389h287v401q2 -2 61 -16q55 -14 123 -16q65 0 147 16t154 74q76 57 123 172q45 114 47 307q0 192 -39 307q-39 113 -102 166q-64 55 -136 72q-73 12 -143 12q-86 -2 -145 -37q-62 -33 -90 -61v466h-287v-1863zM451 215v616q2 2 59 33q53 27 115 29q45 0 82 -4 q36 -6 61 -39q27 -33 39 -103q12 -71 12 -198q0 -125 -16 -197q-17 -71 -45 -108q-29 -35 -64 -47q-35 -11 -71 -11q-58 0 -111 17q-59 10 -61 12z" />
<glyph unicode="&#xff;" horiz-adv-x="973" d="M-20 1085l417 -1050l-14 -62q-14 -65 -47 -110q-37 -49 -100 -51q-56 2 -125 18q-76 16 -78 16v-215q2 0 78 -20q71 -19 155 -21q111 0 201 52q92 53 137 194l389 1249h-305l-178 -755l-213 755h-317zM92 1393q0 -70 47 -115q45 -49 115 -49q72 0 117 49q45 45 45 115 q0 69 -45 116q-45 45 -117 47q-70 -2 -115 -47q-47 -47 -47 -116zM602 1393q0 -70 47 -115q45 -49 115 -49q72 0 117 49q45 45 45 115q0 69 -45 116q-45 45 -117 47q-70 -2 -115 -47q-47 -47 -47 -116z" />
<glyph unicode="&#x152;" horiz-adv-x="1505" d="M82 717q0 -256 51 -406q47 -149 123 -221q78 -72 166 -90q88 -20 172 -20q88 2 172 20h688v244h-451v415h410v222h-410v309h441l20 243h-717q-81 21 -153 21q-76 0 -164 -16q-88 -21 -166 -93q-78 -71 -129 -219q-53 -151 -53 -409zM369 717q0 321 59 432q31 57 74 82 q41 18 92 18q72 -2 123 -20v-1018q-53 -27 -123 -27q-92 -4 -156 101q-30 57 -49 163q-20 105 -20 269z" />
<glyph unicode="&#x153;" horiz-adv-x="1780" d="M82 543q0 -178 49 -291q45 -113 119 -172q76 -57 162 -78q84 -22 165 -22q93 0 187 28q94 29 164 127q65 -98 166 -127q98 -28 194 -28q68 0 129 10q60 10 105 18q96 25 98 27v227q-4 -2 -109 -26q-104 -27 -223 -29q-72 -2 -137 43q-31 24 -53 74q-23 45 -27 124h614 l2 95q7 174 -32 286q-41 111 -107 170q-65 62 -143 84q-78 23 -158 23q-84 0 -170 -29q-88 -35 -147 -129q-64 101 -160 131q-98 29 -193 27q-83 0 -169 -19q-86 -22 -162 -84q-72 -59 -117 -170q-47 -112 -47 -290zM369 543q0 123 18 194q16 74 45 109q31 37 68 47t77 10 q89 4 150 -53q29 -35 45 -109q14 -73 14 -198q0 -119 -18 -191q-18 -71 -49 -108q-31 -35 -68 -47q-37 -13 -74 -13q-32 0 -67 15q-37 12 -70 47q-30 37 -49 108q-22 70 -22 189zM1071 629q2 161 45 227q39 63 131 63q80 3 119 -57q39 -61 41 -233h-336z" />
<glyph unicode="&#x178;" horiz-adv-x="1044" d="M-20 1433l399 -894v-539h287v539l399 894h-326l-217 -651l-217 651h-325zM104 1659q0 -70 48 -115q45 -49 114 -49q72 0 117 49q45 45 45 115q0 69 -45 116q-45 46 -117 48q-69 -2 -114 -48q-48 -47 -48 -116zM614 1659q0 -70 47 -115q46 -49 115 -49q72 0 117 49 q45 45 45 115q0 69 -45 116q-45 46 -117 48q-69 -2 -115 -48q-47 -47 -47 -116z" />
<glyph unicode="&#x2c6;" horiz-adv-x="913" d="M41 1270h311l105 147l104 -147h311l-282 327h-266z" />
<glyph unicode="&#x2dc;" horiz-adv-x="819" d="M82 1290q90 62 156 62q55 0 98 -13q43 -12 78 -32q37 -19 80 -33q38 -17 94 -17q69 0 149 54v243q-78 -51 -131 -51q-78 2 -151 45q-37 21 -82 33q-49 12 -113 12q-84 0 -178 -57v-246z" />
<glyph unicode="&#x2000;" horiz-adv-x="958" />
<glyph unicode="&#x2001;" horiz-adv-x="1917" />
<glyph unicode="&#x2002;" horiz-adv-x="958" />
<glyph unicode="&#x2003;" horiz-adv-x="1917" />
<glyph unicode="&#x2004;" horiz-adv-x="639" />
<glyph unicode="&#x2005;" horiz-adv-x="479" />
<glyph unicode="&#x2006;" horiz-adv-x="319" />
<glyph unicode="&#x2007;" horiz-adv-x="319" />
<glyph unicode="&#x2008;" horiz-adv-x="239" />
<glyph unicode="&#x2009;" horiz-adv-x="383" />
<glyph unicode="&#x200a;" horiz-adv-x="106" />
<glyph unicode="&#x2010;" horiz-adv-x="1106" d="M143 553h819v266h-819v-266z" />
<glyph unicode="&#x2011;" horiz-adv-x="1106" d="M143 553h819v266h-819v-266z" />
<glyph unicode="&#x2012;" horiz-adv-x="1106" d="M143 553h819v266h-819v-266z" />
<glyph unicode="&#x2013;" horiz-adv-x="1311" d="M143 553h1024v266h-1024v-266z" />
<glyph unicode="&#x2014;" horiz-adv-x="1515" d="M143 553h1229v266h-1229v-266z" />
<glyph unicode="&#x2018;" horiz-adv-x="643" d="M102 829h344l33 666h-209z" />
<glyph unicode="&#x2019;" horiz-adv-x="643" d="M164 829h209l168 666h-344z" />
<glyph unicode="&#x201a;" horiz-adv-x="664" d="M164 -348h209l168 665h-344z" />
<glyph unicode="&#x201c;" horiz-adv-x="1114" d="M102 829h344l33 666h-209zM573 829h344l33 666h-209z" />
<glyph unicode="&#x201d;" horiz-adv-x="1114" d="M164 829h209l168 666h-344zM635 829h209l168 666h-344z" />
<glyph unicode="&#x201e;" horiz-adv-x="1114" d="M164 -348h209l168 665h-344zM635 -348h209l168 665h-344z" />
<glyph unicode="&#x2022;" horiz-adv-x="821" d="M164 774q0 -108 72 -178q69 -72 176 -72q108 0 178 72q65 70 67 178q-2 109 -67 178q-70 68 -178 70q-107 -2 -174 -68q-72 -67 -74 -180z" />
<glyph unicode="&#x2026;" horiz-adv-x="1972" d="M164 149q0 -88 59 -147q58 -61 148 -63q90 2 147 63t57 147q0 89 -57 150q-57 57 -147 59q-88 -2 -146 -59q-61 -61 -61 -150zM780 149q0 -88 60 -147q57 -61 147 -63q90 2 148 63q57 61 57 147q0 89 -57 150q-58 57 -148 59q-88 -2 -145 -59q-62 -61 -62 -150zM1397 149 q0 -88 59 -147q57 -61 147 -63q91 2 148 63t57 147q0 89 -57 150q-57 57 -148 59q-88 -2 -145 -59q-61 -61 -61 -150z" />
<glyph unicode="&#x202f;" horiz-adv-x="383" />
<glyph unicode="&#x2039;" horiz-adv-x="655" d="M61 584l471 -441v377l-217 170l217 162v377l-471 -441v-204z" />
<glyph unicode="&#x203a;" horiz-adv-x="655" d="M123 143l471 441v204l-471 441v-377l217 -162l-217 -170v-377z" />
<glyph unicode="&#x205f;" horiz-adv-x="479" />
<glyph unicode="&#x2122;" horiz-adv-x="1649" d="M20 1227h234v-654h244v654h192l-29 -654h244l6 447l195 -305l198 313l3 -455h239l-33 860h-192l-215 -384l-219 384h-867v-206z" />
<glyph unicode="&#xe000;" horiz-adv-x="1085" d="M0 1085h1085v-1085h-1085v1085z" />
<glyph unicode="&#xfb01;" horiz-adv-x="1351" d="M874 1403q0 -72 49 -121q50 -53 121 -53q76 0 123 53q45 49 47 121q-2 74 -47 125q-47 47 -123 49q-71 -2 -121 -49q-49 -51 -49 -125zM901 0h287v1085h-287v-1085zM20 893h185v-893h286v893h218l28 192h-246v58q0 67 27 98q25 27 82 27q74 -2 143 -17q72 -16 76 -16v211 q-2 2 -74 24q-75 23 -194 25h-7q-135 0 -233 -70q-49 -37 -78 -100q-28 -68 -28 -168v-72h-185v-192z" />
<glyph unicode="&#xfb02;" horiz-adv-x="1331" d="M891 0h286v1474h-286v-1474zM20 893h185v-893h286v893h218l28 192h-246v58q0 67 27 98q25 27 82 27q74 -2 143 -17q72 -16 76 -16v211q-2 2 -74 24q-75 23 -194 25h-7q-135 0 -233 -70q-49 -37 -78 -100q-28 -68 -28 -168v-72h-185v-192z" />
<glyph unicode="&#xfb03;" horiz-adv-x="2088" d="M1611 1403q0 -72 49 -121q50 -53 121 -53q76 0 123 53q45 49 47 121q-2 74 -47 125q-47 47 -123 49q-71 -2 -121 -49q-49 -51 -49 -125zM1638 0h287v1085h-287v-1085zM757 893h185v-893h286v893h218l28 192h-246v58q0 67 27 98q25 27 82 27q74 -2 143 -17q72 -16 76 -16 v211q-2 2 -74 24q-75 23 -194 25h-7q-135 0 -233 -70q-49 -37 -78 -100q-28 -68 -28 -168v-72h-185v-192zM20 893h185v-893h286v893h218l28 192h-246v58q0 67 27 98q25 27 82 27q74 -2 143 -17q72 -16 76 -16v211q-2 2 -74 24q-75 23 -194 25h-7q-135 0 -233 -70 q-49 -37 -78 -100q-28 -68 -28 -168v-72h-185v-192z" />
<glyph unicode="&#xfb04;" horiz-adv-x="2068" d="M1628 0h286v1474h-286v-1474zM757 893h185v-893h286v893h218l28 192h-246v58q0 67 27 98q25 27 82 27q74 -2 143 -17q72 -16 76 -16v211q-2 2 -74 24q-75 23 -194 25h-7q-135 0 -233 -70q-49 -37 -78 -100q-28 -68 -28 -168v-72h-185v-192zM20 893h185v-893h286v893h218 l28 192h-246v58q0 67 27 98q25 27 82 27q74 -2 143 -17q72 -16 76 -16v211q-2 2 -74 24q-75 23 -194 25h-7q-135 0 -233 -70q-49 -37 -78 -100q-28 -68 -28 -168v-72h-185v-192z" />
</font>
</defs>
</svg>
